G04 #@! TF.GenerationSoftware,KiCad,Pcbnew,(5.1.4)-1*
G04 #@! TF.CreationDate,2021-01-24T19:33:32+11:00*
G04 #@! TF.ProjectId,aio3 PCB guide,61696f33-2050-4434-9220-67756964652e,rev?*
G04 #@! TF.SameCoordinates,Original*
G04 #@! TF.FileFunction,Soldermask,Bot*
G04 #@! TF.FilePolarity,Negative*
%FSLAX46Y46*%
G04 Gerber Fmt 4.6, Leading zero omitted, Abs format (unit mm)*
G04 Created by KiCad (PCBNEW (5.1.4)-1) date 2021-01-24 19:33:32*
%MOMM*%
%LPD*%
G04 APERTURE LIST*
%ADD10C,0.100000*%
G04 APERTURE END LIST*
D10*
G36*
X85013500Y-79444750D02*
G01*
X83111500Y-79444750D01*
X83111500Y-78242750D01*
X85013500Y-78242750D01*
X85013500Y-79444750D01*
X85013500Y-79444750D01*
G37*
G36*
X78813500Y-79444750D02*
G01*
X76911500Y-79444750D01*
X76911500Y-78242750D01*
X78813500Y-78242750D01*
X78813500Y-79444750D01*
X78813500Y-79444750D01*
G37*
G36*
X144112675Y-77106988D02*
G01*
X144278960Y-77140063D01*
X144461586Y-77215709D01*
X144625944Y-77325530D01*
X144765720Y-77465306D01*
X144875541Y-77629664D01*
X144951187Y-77812290D01*
X144989750Y-78006164D01*
X144989750Y-78203836D01*
X144951187Y-78397710D01*
X144875541Y-78580336D01*
X144765720Y-78744694D01*
X144625944Y-78884470D01*
X144461586Y-78994291D01*
X144278960Y-79069937D01*
X144112675Y-79103012D01*
X144085087Y-79108500D01*
X143887413Y-79108500D01*
X143859825Y-79103012D01*
X143693540Y-79069937D01*
X143510914Y-78994291D01*
X143346556Y-78884470D01*
X143206780Y-78744694D01*
X143096959Y-78580336D01*
X143021313Y-78397710D01*
X142982750Y-78203836D01*
X142982750Y-78006164D01*
X143021313Y-77812290D01*
X143096959Y-77629664D01*
X143206780Y-77465306D01*
X143346556Y-77325530D01*
X143510914Y-77215709D01*
X143693540Y-77140063D01*
X143859825Y-77106988D01*
X143887413Y-77101500D01*
X144085087Y-77101500D01*
X144112675Y-77106988D01*
X144112675Y-77106988D01*
G37*
G36*
X128479750Y-79108500D02*
G01*
X126472750Y-79108500D01*
X126472750Y-77101500D01*
X128479750Y-77101500D01*
X128479750Y-79108500D01*
X128479750Y-79108500D01*
G37*
G36*
X125062675Y-77106988D02*
G01*
X125228960Y-77140063D01*
X125411586Y-77215709D01*
X125575944Y-77325530D01*
X125715720Y-77465306D01*
X125825541Y-77629664D01*
X125901187Y-77812290D01*
X125939750Y-78006164D01*
X125939750Y-78203836D01*
X125901187Y-78397710D01*
X125825541Y-78580336D01*
X125715720Y-78744694D01*
X125575944Y-78884470D01*
X125411586Y-78994291D01*
X125228960Y-79069937D01*
X125062675Y-79103012D01*
X125035087Y-79108500D01*
X124837413Y-79108500D01*
X124809825Y-79103012D01*
X124643540Y-79069937D01*
X124460914Y-78994291D01*
X124296556Y-78884470D01*
X124156780Y-78744694D01*
X124046959Y-78580336D01*
X123971313Y-78397710D01*
X123932750Y-78203836D01*
X123932750Y-78006164D01*
X123971313Y-77812290D01*
X124046959Y-77629664D01*
X124156780Y-77465306D01*
X124296556Y-77325530D01*
X124460914Y-77215709D01*
X124643540Y-77140063D01*
X124809825Y-77106988D01*
X124837413Y-77101500D01*
X125035087Y-77101500D01*
X125062675Y-77106988D01*
X125062675Y-77106988D01*
G37*
G36*
X147529750Y-79108500D02*
G01*
X145522750Y-79108500D01*
X145522750Y-77101500D01*
X147529750Y-77101500D01*
X147529750Y-79108500D01*
X147529750Y-79108500D01*
G37*
G36*
X85013500Y-75744750D02*
G01*
X83111500Y-75744750D01*
X83111500Y-74542750D01*
X85013500Y-74542750D01*
X85013500Y-75744750D01*
X85013500Y-75744750D01*
G37*
G36*
X78813500Y-75744750D02*
G01*
X76911500Y-75744750D01*
X76911500Y-74542750D01*
X78813500Y-74542750D01*
X78813500Y-75744750D01*
X78813500Y-75744750D01*
G37*
G36*
X134794750Y-75176000D02*
G01*
X133492750Y-75176000D01*
X133492750Y-74174000D01*
X134794750Y-74174000D01*
X134794750Y-75176000D01*
X134794750Y-75176000D01*
G37*
G36*
X153844750Y-75176000D02*
G01*
X152542750Y-75176000D01*
X152542750Y-74174000D01*
X153844750Y-74174000D01*
X153844750Y-75176000D01*
X153844750Y-75176000D01*
G37*
G36*
X145852724Y-71058684D02*
G01*
X146070724Y-71148983D01*
X146224873Y-71212833D01*
X146559798Y-71436623D01*
X146844627Y-71721452D01*
X147068417Y-72056377D01*
X147100812Y-72134586D01*
X147222566Y-72428526D01*
X147301150Y-72823594D01*
X147301150Y-73226406D01*
X147222566Y-73621474D01*
X147171701Y-73744272D01*
X147068417Y-73993623D01*
X146844627Y-74328548D01*
X146559798Y-74613377D01*
X146224873Y-74837167D01*
X146070724Y-74901017D01*
X145852724Y-74991316D01*
X145457656Y-75069900D01*
X145054844Y-75069900D01*
X144659776Y-74991316D01*
X144441776Y-74901017D01*
X144287627Y-74837167D01*
X143952702Y-74613377D01*
X143667873Y-74328548D01*
X143444083Y-73993623D01*
X143340799Y-73744272D01*
X143289934Y-73621474D01*
X143211350Y-73226406D01*
X143211350Y-72823594D01*
X143289934Y-72428526D01*
X143411688Y-72134586D01*
X143444083Y-72056377D01*
X143667873Y-71721452D01*
X143952702Y-71436623D01*
X144287627Y-71212833D01*
X144441776Y-71148983D01*
X144659776Y-71058684D01*
X145054844Y-70980100D01*
X145457656Y-70980100D01*
X145852724Y-71058684D01*
X145852724Y-71058684D01*
G37*
G36*
X126802724Y-71058684D02*
G01*
X127020724Y-71148983D01*
X127174873Y-71212833D01*
X127509798Y-71436623D01*
X127794627Y-71721452D01*
X128018417Y-72056377D01*
X128050812Y-72134586D01*
X128172566Y-72428526D01*
X128251150Y-72823594D01*
X128251150Y-73226406D01*
X128172566Y-73621474D01*
X128121701Y-73744272D01*
X128018417Y-73993623D01*
X127794627Y-74328548D01*
X127509798Y-74613377D01*
X127174873Y-74837167D01*
X127020724Y-74901017D01*
X126802724Y-74991316D01*
X126407656Y-75069900D01*
X126004844Y-75069900D01*
X125609776Y-74991316D01*
X125391776Y-74901017D01*
X125237627Y-74837167D01*
X124902702Y-74613377D01*
X124617873Y-74328548D01*
X124394083Y-73993623D01*
X124290799Y-73744272D01*
X124239934Y-73621474D01*
X124161350Y-73226406D01*
X124161350Y-72823594D01*
X124239934Y-72428526D01*
X124361688Y-72134586D01*
X124394083Y-72056377D01*
X124617873Y-71721452D01*
X124902702Y-71436623D01*
X125237627Y-71212833D01*
X125391776Y-71148983D01*
X125609776Y-71058684D01*
X126004844Y-70980100D01*
X126407656Y-70980100D01*
X126802724Y-71058684D01*
X126802724Y-71058684D01*
G37*
G36*
X111184434Y-73206186D02*
G01*
X111224284Y-73218274D01*
X111260999Y-73237899D01*
X111293186Y-73264314D01*
X111319601Y-73296501D01*
X111339226Y-73333216D01*
X111351314Y-73373066D01*
X111356000Y-73420641D01*
X111356000Y-74534359D01*
X111351314Y-74581934D01*
X111339226Y-74621784D01*
X111319601Y-74658499D01*
X111293186Y-74690686D01*
X111260999Y-74717101D01*
X111224284Y-74736726D01*
X111184434Y-74748814D01*
X111136859Y-74753500D01*
X110473141Y-74753500D01*
X110425566Y-74748814D01*
X110385716Y-74736726D01*
X110349001Y-74717101D01*
X110316814Y-74690686D01*
X110290399Y-74658499D01*
X110270774Y-74621784D01*
X110258686Y-74581934D01*
X110254000Y-74534359D01*
X110254000Y-73420641D01*
X110258686Y-73373066D01*
X110270774Y-73333216D01*
X110290399Y-73296501D01*
X110316814Y-73264314D01*
X110349001Y-73237899D01*
X110385716Y-73218274D01*
X110425566Y-73206186D01*
X110473141Y-73201500D01*
X111136859Y-73201500D01*
X111184434Y-73206186D01*
X111184434Y-73206186D01*
G37*
G36*
X109284434Y-73206186D02*
G01*
X109324284Y-73218274D01*
X109360999Y-73237899D01*
X109393186Y-73264314D01*
X109419601Y-73296501D01*
X109439226Y-73333216D01*
X109451314Y-73373066D01*
X109456000Y-73420641D01*
X109456000Y-74534359D01*
X109451314Y-74581934D01*
X109439226Y-74621784D01*
X109419601Y-74658499D01*
X109393186Y-74690686D01*
X109360999Y-74717101D01*
X109324284Y-74736726D01*
X109284434Y-74748814D01*
X109236859Y-74753500D01*
X108573141Y-74753500D01*
X108525566Y-74748814D01*
X108485716Y-74736726D01*
X108449001Y-74717101D01*
X108416814Y-74690686D01*
X108390399Y-74658499D01*
X108370774Y-74621784D01*
X108358686Y-74581934D01*
X108354000Y-74534359D01*
X108354000Y-73420641D01*
X108358686Y-73373066D01*
X108370774Y-73333216D01*
X108390399Y-73296501D01*
X108416814Y-73264314D01*
X108449001Y-73237899D01*
X108485716Y-73218274D01*
X108525566Y-73206186D01*
X108573141Y-73201500D01*
X109236859Y-73201500D01*
X109284434Y-73206186D01*
X109284434Y-73206186D01*
G37*
G36*
X121396354Y-72134585D02*
G01*
X121564876Y-72204389D01*
X121716541Y-72305728D01*
X121845522Y-72434709D01*
X121946861Y-72586374D01*
X122016665Y-72754896D01*
X122052250Y-72933797D01*
X122052250Y-73116203D01*
X122016665Y-73295104D01*
X121946861Y-73463626D01*
X121845522Y-73615291D01*
X121716541Y-73744272D01*
X121564876Y-73845611D01*
X121396354Y-73915415D01*
X121217453Y-73951000D01*
X121035047Y-73951000D01*
X120856146Y-73915415D01*
X120687624Y-73845611D01*
X120535959Y-73744272D01*
X120406978Y-73615291D01*
X120305639Y-73463626D01*
X120235835Y-73295104D01*
X120200250Y-73116203D01*
X120200250Y-72933797D01*
X120235835Y-72754896D01*
X120305639Y-72586374D01*
X120406978Y-72434709D01*
X120535959Y-72305728D01*
X120687624Y-72204389D01*
X120856146Y-72134585D01*
X121035047Y-72099000D01*
X121217453Y-72099000D01*
X121396354Y-72134585D01*
X121396354Y-72134585D01*
G37*
G36*
X131556354Y-72134585D02*
G01*
X131724876Y-72204389D01*
X131876541Y-72305728D01*
X132005522Y-72434709D01*
X132106861Y-72586374D01*
X132176665Y-72754896D01*
X132212250Y-72933797D01*
X132212250Y-73116203D01*
X132176665Y-73295104D01*
X132106861Y-73463626D01*
X132005522Y-73615291D01*
X131876541Y-73744272D01*
X131724876Y-73845611D01*
X131556354Y-73915415D01*
X131377453Y-73951000D01*
X131195047Y-73951000D01*
X131016146Y-73915415D01*
X130847624Y-73845611D01*
X130695959Y-73744272D01*
X130566978Y-73615291D01*
X130465639Y-73463626D01*
X130395835Y-73295104D01*
X130360250Y-73116203D01*
X130360250Y-72933797D01*
X130395835Y-72754896D01*
X130465639Y-72586374D01*
X130566978Y-72434709D01*
X130695959Y-72305728D01*
X130847624Y-72204389D01*
X131016146Y-72134585D01*
X131195047Y-72099000D01*
X131377453Y-72099000D01*
X131556354Y-72134585D01*
X131556354Y-72134585D01*
G37*
G36*
X140446354Y-72134585D02*
G01*
X140614876Y-72204389D01*
X140766541Y-72305728D01*
X140895522Y-72434709D01*
X140996861Y-72586374D01*
X141066665Y-72754896D01*
X141102250Y-72933797D01*
X141102250Y-73116203D01*
X141066665Y-73295104D01*
X140996861Y-73463626D01*
X140895522Y-73615291D01*
X140766541Y-73744272D01*
X140614876Y-73845611D01*
X140446354Y-73915415D01*
X140267453Y-73951000D01*
X140085047Y-73951000D01*
X139906146Y-73915415D01*
X139737624Y-73845611D01*
X139585959Y-73744272D01*
X139456978Y-73615291D01*
X139355639Y-73463626D01*
X139285835Y-73295104D01*
X139250250Y-73116203D01*
X139250250Y-72933797D01*
X139285835Y-72754896D01*
X139355639Y-72586374D01*
X139456978Y-72434709D01*
X139585959Y-72305728D01*
X139737624Y-72204389D01*
X139906146Y-72134585D01*
X140085047Y-72099000D01*
X140267453Y-72099000D01*
X140446354Y-72134585D01*
X140446354Y-72134585D01*
G37*
G36*
X150606354Y-72134585D02*
G01*
X150774876Y-72204389D01*
X150926541Y-72305728D01*
X151055522Y-72434709D01*
X151156861Y-72586374D01*
X151226665Y-72754896D01*
X151262250Y-72933797D01*
X151262250Y-73116203D01*
X151226665Y-73295104D01*
X151156861Y-73463626D01*
X151055522Y-73615291D01*
X150926541Y-73744272D01*
X150774876Y-73845611D01*
X150606354Y-73915415D01*
X150427453Y-73951000D01*
X150245047Y-73951000D01*
X150066146Y-73915415D01*
X149897624Y-73845611D01*
X149745959Y-73744272D01*
X149616978Y-73615291D01*
X149515639Y-73463626D01*
X149445835Y-73295104D01*
X149410250Y-73116203D01*
X149410250Y-72933797D01*
X149445835Y-72754896D01*
X149515639Y-72586374D01*
X149616978Y-72434709D01*
X149745959Y-72305728D01*
X149897624Y-72204389D01*
X150066146Y-72134585D01*
X150245047Y-72099000D01*
X150427453Y-72099000D01*
X150606354Y-72134585D01*
X150606354Y-72134585D01*
G37*
G36*
X96013184Y-71208686D02*
G01*
X96053034Y-71220774D01*
X96089749Y-71240399D01*
X96121936Y-71266814D01*
X96148351Y-71299001D01*
X96167976Y-71335716D01*
X96180064Y-71375566D01*
X96184750Y-71423141D01*
X96184750Y-72086859D01*
X96180064Y-72134434D01*
X96167976Y-72174284D01*
X96148351Y-72210999D01*
X96121936Y-72243186D01*
X96089749Y-72269601D01*
X96053034Y-72289226D01*
X96013184Y-72301314D01*
X95965609Y-72306000D01*
X94851891Y-72306000D01*
X94804316Y-72301314D01*
X94764466Y-72289226D01*
X94727751Y-72269601D01*
X94695564Y-72243186D01*
X94669149Y-72210999D01*
X94649524Y-72174284D01*
X94637436Y-72134434D01*
X94632750Y-72086859D01*
X94632750Y-71423141D01*
X94637436Y-71375566D01*
X94649524Y-71335716D01*
X94669149Y-71299001D01*
X94695564Y-71266814D01*
X94727751Y-71240399D01*
X94764466Y-71220774D01*
X94804316Y-71208686D01*
X94851891Y-71204000D01*
X95965609Y-71204000D01*
X96013184Y-71208686D01*
X96013184Y-71208686D01*
G37*
G36*
X134794750Y-71876000D02*
G01*
X133492750Y-71876000D01*
X133492750Y-70874000D01*
X134794750Y-70874000D01*
X134794750Y-71876000D01*
X134794750Y-71876000D01*
G37*
G36*
X153844750Y-71876000D02*
G01*
X152542750Y-71876000D01*
X152542750Y-70874000D01*
X153844750Y-70874000D01*
X153844750Y-71876000D01*
X153844750Y-71876000D01*
G37*
G36*
X142779455Y-67848881D02*
G01*
X142784895Y-67849000D01*
X142872078Y-67849000D01*
X142888347Y-67852236D01*
X142907206Y-67854515D01*
X142923782Y-67855246D01*
X143008473Y-67876010D01*
X143013768Y-67877184D01*
X143099277Y-67894193D01*
X143114612Y-67900545D01*
X143132651Y-67906455D01*
X143148771Y-67910407D01*
X143227754Y-67947280D01*
X143232744Y-67949477D01*
X143313295Y-67982842D01*
X143327091Y-67992060D01*
X143343643Y-68001382D01*
X143358676Y-68008400D01*
X143428944Y-68059971D01*
X143433442Y-68063122D01*
X143505906Y-68111541D01*
X143517633Y-68123268D01*
X143532059Y-68135648D01*
X143545429Y-68145461D01*
X143545430Y-68145462D01*
X143604271Y-68209733D01*
X143608079Y-68213714D01*
X143669709Y-68275344D01*
X143678924Y-68289135D01*
X143690646Y-68304078D01*
X143701855Y-68316321D01*
X143747049Y-68390874D01*
X143749996Y-68395501D01*
X143798408Y-68467955D01*
X143804755Y-68483277D01*
X143813342Y-68500231D01*
X143821941Y-68514417D01*
X143851728Y-68596368D01*
X143853702Y-68601448D01*
X143887057Y-68681973D01*
X143887057Y-68681974D01*
X143890291Y-68698233D01*
X143895408Y-68716542D01*
X143901075Y-68732134D01*
X143914305Y-68818345D01*
X143915251Y-68823713D01*
X143932250Y-68909173D01*
X143932250Y-68925752D01*
X143933694Y-68944692D01*
X143936213Y-68961104D01*
X143932370Y-69048249D01*
X143932250Y-69053689D01*
X143932250Y-69140825D01*
X143929016Y-69157083D01*
X143926738Y-69175941D01*
X143926006Y-69192531D01*
X143905238Y-69277237D01*
X143904062Y-69282537D01*
X143887057Y-69368027D01*
X143880707Y-69383357D01*
X143874799Y-69401393D01*
X143870845Y-69417520D01*
X143833961Y-69496526D01*
X143831761Y-69501523D01*
X143798408Y-69582045D01*
X143789194Y-69595835D01*
X143779872Y-69612387D01*
X143772852Y-69627424D01*
X143721261Y-69697720D01*
X143718116Y-69702210D01*
X143669711Y-69774654D01*
X143612710Y-69831655D01*
X143608061Y-69836563D01*
X143104072Y-70398260D01*
X142282973Y-71313376D01*
X142154929Y-71430602D01*
X142131590Y-71444750D01*
X141956833Y-71550689D01*
X141739116Y-71629823D01*
X141510145Y-71664961D01*
X141278720Y-71654754D01*
X141053731Y-71599593D01*
X140948977Y-71550689D01*
X140843829Y-71501602D01*
X140788560Y-71461039D01*
X140657073Y-71364539D01*
X140575158Y-71275064D01*
X140500648Y-71193679D01*
X140418814Y-71058685D01*
X140380561Y-70995583D01*
X140301427Y-70777866D01*
X140266289Y-70548895D01*
X140276496Y-70317470D01*
X140331657Y-70092481D01*
X140383222Y-69982028D01*
X140429648Y-69882580D01*
X140429650Y-69882577D01*
X140532364Y-69742622D01*
X141287495Y-68901027D01*
X141819037Y-68308621D01*
X141829931Y-68294589D01*
X141842789Y-68275346D01*
X141899823Y-68218312D01*
X141904473Y-68213403D01*
X141919528Y-68196624D01*
X141940951Y-68177011D01*
X141944932Y-68173203D01*
X142006596Y-68111539D01*
X142020393Y-68102320D01*
X142035352Y-68090585D01*
X142047571Y-68079398D01*
X142079635Y-68059961D01*
X142122080Y-68034231D01*
X142126671Y-68031308D01*
X142199205Y-67982842D01*
X142214550Y-67976486D01*
X142231498Y-67967901D01*
X142245666Y-67959312D01*
X142245667Y-67959312D01*
X142245668Y-67959311D01*
X142327562Y-67929545D01*
X142332660Y-67927563D01*
X142413223Y-67894193D01*
X142429502Y-67890955D01*
X142447792Y-67885844D01*
X142463385Y-67880177D01*
X142549550Y-67866954D01*
X142554913Y-67866009D01*
X142640423Y-67849000D01*
X142657016Y-67849000D01*
X142675959Y-67847555D01*
X142692356Y-67845039D01*
X142779455Y-67848881D01*
X142779455Y-67848881D01*
G37*
G36*
X123729455Y-67848881D02*
G01*
X123734895Y-67849000D01*
X123822078Y-67849000D01*
X123838347Y-67852236D01*
X123857206Y-67854515D01*
X123873782Y-67855246D01*
X123958473Y-67876010D01*
X123963768Y-67877184D01*
X124049277Y-67894193D01*
X124064612Y-67900545D01*
X124082651Y-67906455D01*
X124098771Y-67910407D01*
X124177754Y-67947280D01*
X124182744Y-67949477D01*
X124263295Y-67982842D01*
X124277091Y-67992060D01*
X124293643Y-68001382D01*
X124308676Y-68008400D01*
X124378944Y-68059971D01*
X124383442Y-68063122D01*
X124455906Y-68111541D01*
X124467633Y-68123268D01*
X124482059Y-68135648D01*
X124495429Y-68145461D01*
X124495430Y-68145462D01*
X124554271Y-68209733D01*
X124558079Y-68213714D01*
X124619709Y-68275344D01*
X124628924Y-68289135D01*
X124640646Y-68304078D01*
X124651855Y-68316321D01*
X124697049Y-68390874D01*
X124699996Y-68395501D01*
X124748408Y-68467955D01*
X124754755Y-68483277D01*
X124763342Y-68500231D01*
X124771941Y-68514417D01*
X124801728Y-68596368D01*
X124803702Y-68601448D01*
X124837057Y-68681973D01*
X124837057Y-68681974D01*
X124840291Y-68698233D01*
X124845408Y-68716542D01*
X124851075Y-68732134D01*
X124864305Y-68818345D01*
X124865251Y-68823713D01*
X124882250Y-68909173D01*
X124882250Y-68925752D01*
X124883694Y-68944692D01*
X124886213Y-68961104D01*
X124882370Y-69048249D01*
X124882250Y-69053689D01*
X124882250Y-69140825D01*
X124879016Y-69157083D01*
X124876738Y-69175941D01*
X124876006Y-69192531D01*
X124855238Y-69277237D01*
X124854062Y-69282537D01*
X124837057Y-69368027D01*
X124830707Y-69383357D01*
X124824799Y-69401393D01*
X124820845Y-69417520D01*
X124783961Y-69496526D01*
X124781761Y-69501523D01*
X124748408Y-69582045D01*
X124739194Y-69595835D01*
X124729872Y-69612387D01*
X124722852Y-69627424D01*
X124671261Y-69697720D01*
X124668116Y-69702210D01*
X124619711Y-69774654D01*
X124562710Y-69831655D01*
X124558061Y-69836563D01*
X124054072Y-70398260D01*
X123232973Y-71313376D01*
X123104929Y-71430602D01*
X123081590Y-71444750D01*
X122906833Y-71550689D01*
X122689116Y-71629823D01*
X122460145Y-71664961D01*
X122228720Y-71654754D01*
X122003731Y-71599593D01*
X121898977Y-71550689D01*
X121793829Y-71501602D01*
X121738560Y-71461039D01*
X121607073Y-71364539D01*
X121525158Y-71275064D01*
X121450648Y-71193679D01*
X121368814Y-71058685D01*
X121330561Y-70995583D01*
X121251427Y-70777866D01*
X121216289Y-70548895D01*
X121226496Y-70317470D01*
X121281657Y-70092481D01*
X121333222Y-69982028D01*
X121379648Y-69882580D01*
X121379650Y-69882577D01*
X121482364Y-69742622D01*
X122237495Y-68901027D01*
X122769037Y-68308621D01*
X122779931Y-68294589D01*
X122792789Y-68275346D01*
X122849823Y-68218312D01*
X122854473Y-68213403D01*
X122869528Y-68196624D01*
X122890951Y-68177011D01*
X122894932Y-68173203D01*
X122956596Y-68111539D01*
X122970393Y-68102320D01*
X122985352Y-68090585D01*
X122997571Y-68079398D01*
X123029635Y-68059961D01*
X123072080Y-68034231D01*
X123076671Y-68031308D01*
X123149205Y-67982842D01*
X123164550Y-67976486D01*
X123181498Y-67967901D01*
X123195666Y-67959312D01*
X123195667Y-67959312D01*
X123195668Y-67959311D01*
X123277562Y-67929545D01*
X123282660Y-67927563D01*
X123363223Y-67894193D01*
X123379502Y-67890955D01*
X123397792Y-67885844D01*
X123413385Y-67880177D01*
X123499550Y-67866954D01*
X123504913Y-67866009D01*
X123590423Y-67849000D01*
X123607016Y-67849000D01*
X123625959Y-67847555D01*
X123642356Y-67845039D01*
X123729455Y-67848881D01*
X123729455Y-67848881D01*
G37*
G36*
X109101000Y-71588500D02*
G01*
X100449000Y-71588500D01*
X100449000Y-69986500D01*
X109101000Y-69986500D01*
X109101000Y-71588500D01*
X109101000Y-71588500D01*
G37*
G36*
X114087412Y-70322394D02*
G01*
X114126858Y-70334360D01*
X114163203Y-70353787D01*
X114195065Y-70379935D01*
X114221213Y-70411797D01*
X114240640Y-70448142D01*
X114252606Y-70487588D01*
X114257250Y-70534743D01*
X114257250Y-71227757D01*
X114252606Y-71274912D01*
X114240640Y-71314358D01*
X114221213Y-71350703D01*
X114195065Y-71382565D01*
X114163203Y-71408713D01*
X114126858Y-71428140D01*
X114087412Y-71440106D01*
X114040257Y-71444750D01*
X112972243Y-71444750D01*
X112925088Y-71440106D01*
X112885642Y-71428140D01*
X112849297Y-71408713D01*
X112817435Y-71382565D01*
X112791287Y-71350703D01*
X112771860Y-71314358D01*
X112759894Y-71274912D01*
X112755250Y-71227757D01*
X112755250Y-70534743D01*
X112759894Y-70487588D01*
X112771860Y-70448142D01*
X112791287Y-70411797D01*
X112817435Y-70379935D01*
X112849297Y-70353787D01*
X112885642Y-70334360D01*
X112925088Y-70322394D01*
X112972243Y-70317750D01*
X114040257Y-70317750D01*
X114087412Y-70322394D01*
X114087412Y-70322394D01*
G37*
G36*
X96013184Y-69308686D02*
G01*
X96053034Y-69320774D01*
X96089749Y-69340399D01*
X96121936Y-69366814D01*
X96148351Y-69399001D01*
X96167976Y-69435716D01*
X96180064Y-69475566D01*
X96184750Y-69523141D01*
X96184750Y-70186859D01*
X96180064Y-70234434D01*
X96167976Y-70274284D01*
X96148351Y-70310999D01*
X96121936Y-70343186D01*
X96089749Y-70369601D01*
X96053034Y-70389226D01*
X96013184Y-70401314D01*
X95965609Y-70406000D01*
X94851891Y-70406000D01*
X94804316Y-70401314D01*
X94764466Y-70389226D01*
X94727751Y-70369601D01*
X94695564Y-70343186D01*
X94669149Y-70310999D01*
X94649524Y-70274284D01*
X94637436Y-70234434D01*
X94632750Y-70186859D01*
X94632750Y-69523141D01*
X94637436Y-69475566D01*
X94649524Y-69435716D01*
X94669149Y-69399001D01*
X94695564Y-69366814D01*
X94727751Y-69340399D01*
X94764466Y-69320774D01*
X94804316Y-69308686D01*
X94851891Y-69304000D01*
X95965609Y-69304000D01*
X96013184Y-69308686D01*
X96013184Y-69308686D01*
G37*
G36*
X128834377Y-66767261D02*
G01*
X128855150Y-66769000D01*
X128862077Y-66769000D01*
X128957004Y-66787882D01*
X128960598Y-66788542D01*
X129055980Y-66804624D01*
X129062453Y-66807085D01*
X129082478Y-66812841D01*
X129089277Y-66814193D01*
X129151664Y-66840034D01*
X129178693Y-66851230D01*
X129182094Y-66852581D01*
X129272505Y-66886961D01*
X129278377Y-66890640D01*
X129296886Y-66900187D01*
X129303295Y-66902842D01*
X129383813Y-66956642D01*
X129386804Y-66958578D01*
X129468807Y-67009959D01*
X129473834Y-67014700D01*
X129490146Y-67027691D01*
X129495902Y-67031537D01*
X129564360Y-67099995D01*
X129566939Y-67102499D01*
X129637340Y-67168889D01*
X129641345Y-67174519D01*
X129654809Y-67190444D01*
X129659709Y-67195344D01*
X129713494Y-67275839D01*
X129715541Y-67278807D01*
X129771630Y-67357645D01*
X129774464Y-67363958D01*
X129784558Y-67382193D01*
X129788408Y-67387955D01*
X129825470Y-67477430D01*
X129826874Y-67480685D01*
X129866515Y-67568973D01*
X129868065Y-67575725D01*
X129874402Y-67595562D01*
X129877057Y-67601973D01*
X129895942Y-67696917D01*
X129896688Y-67700401D01*
X129918348Y-67794751D01*
X129918348Y-67794754D01*
X129918550Y-67801654D01*
X129920897Y-67822370D01*
X129922250Y-67829174D01*
X129922250Y-67925986D01*
X129922303Y-67929584D01*
X129923438Y-67968277D01*
X129922545Y-67981225D01*
X129922250Y-67989797D01*
X129922250Y-68060826D01*
X129916331Y-68090585D01*
X129915854Y-68092979D01*
X129913750Y-68108750D01*
X129875488Y-68663545D01*
X129846626Y-68834730D01*
X129764288Y-69051255D01*
X129641291Y-69247557D01*
X129482361Y-69416090D01*
X129293605Y-69550380D01*
X129082277Y-69645265D01*
X128856499Y-69697098D01*
X128624948Y-69703889D01*
X128624947Y-69703889D01*
X128579262Y-69696186D01*
X128396520Y-69665376D01*
X128179995Y-69583038D01*
X127983693Y-69460041D01*
X127815160Y-69301111D01*
X127680870Y-69112355D01*
X127585985Y-68901027D01*
X127534152Y-68675249D01*
X127529062Y-68501723D01*
X127569954Y-67908794D01*
X127570250Y-67900196D01*
X127570250Y-67829175D01*
X127589132Y-67734250D01*
X127589794Y-67730645D01*
X127595481Y-67696917D01*
X127605874Y-67635270D01*
X127608335Y-67628799D01*
X127614092Y-67608767D01*
X127615443Y-67601974D01*
X127618093Y-67595576D01*
X127652514Y-67512476D01*
X127653803Y-67509230D01*
X127688212Y-67418745D01*
X127691886Y-67412881D01*
X127701437Y-67394365D01*
X127704092Y-67387955D01*
X127757907Y-67307415D01*
X127759827Y-67304449D01*
X127811209Y-67222443D01*
X127815961Y-67217404D01*
X127828939Y-67201107D01*
X127832787Y-67195348D01*
X127901243Y-67126892D01*
X127903796Y-67124262D01*
X127924273Y-67102548D01*
X127970139Y-67053910D01*
X127975771Y-67049903D01*
X127991697Y-67036438D01*
X127996596Y-67031539D01*
X128077074Y-66977766D01*
X128080056Y-66975710D01*
X128158895Y-66919620D01*
X128165205Y-66916787D01*
X128183444Y-66906691D01*
X128189201Y-66902844D01*
X128189204Y-66902843D01*
X128189205Y-66902842D01*
X128278679Y-66865781D01*
X128281937Y-66864375D01*
X128370223Y-66824735D01*
X128376975Y-66823185D01*
X128396812Y-66816848D01*
X128403223Y-66814193D01*
X128498149Y-66795311D01*
X128501696Y-66794551D01*
X128596001Y-66772901D01*
X128598380Y-66772831D01*
X128602915Y-66772698D01*
X128623631Y-66770351D01*
X128630424Y-66769000D01*
X128727209Y-66769000D01*
X128730834Y-66768947D01*
X128827552Y-66766110D01*
X128834377Y-66767261D01*
X128834377Y-66767261D01*
G37*
G36*
X147884377Y-66767261D02*
G01*
X147905150Y-66769000D01*
X147912077Y-66769000D01*
X148007004Y-66787882D01*
X148010598Y-66788542D01*
X148105980Y-66804624D01*
X148112453Y-66807085D01*
X148132478Y-66812841D01*
X148139277Y-66814193D01*
X148201664Y-66840034D01*
X148228693Y-66851230D01*
X148232094Y-66852581D01*
X148322505Y-66886961D01*
X148328377Y-66890640D01*
X148346886Y-66900187D01*
X148353295Y-66902842D01*
X148433813Y-66956642D01*
X148436804Y-66958578D01*
X148518807Y-67009959D01*
X148523834Y-67014700D01*
X148540146Y-67027691D01*
X148545902Y-67031537D01*
X148614360Y-67099995D01*
X148616939Y-67102499D01*
X148687340Y-67168889D01*
X148691345Y-67174519D01*
X148704809Y-67190444D01*
X148709709Y-67195344D01*
X148763494Y-67275839D01*
X148765541Y-67278807D01*
X148821630Y-67357645D01*
X148824464Y-67363958D01*
X148834558Y-67382193D01*
X148838408Y-67387955D01*
X148875470Y-67477430D01*
X148876874Y-67480685D01*
X148916515Y-67568973D01*
X148918065Y-67575725D01*
X148924402Y-67595562D01*
X148927057Y-67601973D01*
X148945942Y-67696917D01*
X148946688Y-67700401D01*
X148968348Y-67794751D01*
X148968348Y-67794754D01*
X148968550Y-67801654D01*
X148970897Y-67822370D01*
X148972250Y-67829174D01*
X148972250Y-67925986D01*
X148972303Y-67929584D01*
X148973438Y-67968277D01*
X148972545Y-67981225D01*
X148972250Y-67989797D01*
X148972250Y-68060826D01*
X148966331Y-68090585D01*
X148965854Y-68092979D01*
X148963750Y-68108750D01*
X148925488Y-68663545D01*
X148896626Y-68834730D01*
X148814288Y-69051255D01*
X148691291Y-69247557D01*
X148532361Y-69416090D01*
X148343605Y-69550380D01*
X148132277Y-69645265D01*
X147906499Y-69697098D01*
X147674948Y-69703889D01*
X147674947Y-69703889D01*
X147629262Y-69696186D01*
X147446520Y-69665376D01*
X147229995Y-69583038D01*
X147033693Y-69460041D01*
X146865160Y-69301111D01*
X146730870Y-69112355D01*
X146635985Y-68901027D01*
X146584152Y-68675249D01*
X146579062Y-68501723D01*
X146619954Y-67908794D01*
X146620250Y-67900196D01*
X146620250Y-67829175D01*
X146639132Y-67734250D01*
X146639794Y-67730645D01*
X146645481Y-67696917D01*
X146655874Y-67635270D01*
X146658335Y-67628799D01*
X146664092Y-67608767D01*
X146665443Y-67601974D01*
X146668093Y-67595576D01*
X146702514Y-67512476D01*
X146703803Y-67509230D01*
X146738212Y-67418745D01*
X146741886Y-67412881D01*
X146751437Y-67394365D01*
X146754092Y-67387955D01*
X146807907Y-67307415D01*
X146809827Y-67304449D01*
X146861209Y-67222443D01*
X146865961Y-67217404D01*
X146878939Y-67201107D01*
X146882787Y-67195348D01*
X146951243Y-67126892D01*
X146953796Y-67124262D01*
X146974273Y-67102548D01*
X147020139Y-67053910D01*
X147025771Y-67049903D01*
X147041697Y-67036438D01*
X147046596Y-67031539D01*
X147127074Y-66977766D01*
X147130056Y-66975710D01*
X147208895Y-66919620D01*
X147215205Y-66916787D01*
X147233444Y-66906691D01*
X147239201Y-66902844D01*
X147239204Y-66902843D01*
X147239205Y-66902842D01*
X147328679Y-66865781D01*
X147331937Y-66864375D01*
X147420223Y-66824735D01*
X147426975Y-66823185D01*
X147446812Y-66816848D01*
X147453223Y-66814193D01*
X147548149Y-66795311D01*
X147551696Y-66794551D01*
X147646001Y-66772901D01*
X147648380Y-66772831D01*
X147652915Y-66772698D01*
X147673631Y-66770351D01*
X147680424Y-66769000D01*
X147777209Y-66769000D01*
X147780834Y-66768947D01*
X147877552Y-66766110D01*
X147884377Y-66767261D01*
X147884377Y-66767261D01*
G37*
G36*
X114087412Y-68497394D02*
G01*
X114126858Y-68509360D01*
X114163203Y-68528787D01*
X114195065Y-68554935D01*
X114221213Y-68586797D01*
X114240640Y-68623142D01*
X114252606Y-68662588D01*
X114257250Y-68709743D01*
X114257250Y-69402757D01*
X114252606Y-69449912D01*
X114240640Y-69489358D01*
X114221213Y-69525703D01*
X114195065Y-69557565D01*
X114163203Y-69583713D01*
X114126858Y-69603140D01*
X114087412Y-69615106D01*
X114040257Y-69619750D01*
X112972243Y-69619750D01*
X112925088Y-69615106D01*
X112885642Y-69603140D01*
X112849297Y-69583713D01*
X112817435Y-69557565D01*
X112791287Y-69525703D01*
X112771860Y-69489358D01*
X112759894Y-69449912D01*
X112755250Y-69402757D01*
X112755250Y-68709743D01*
X112759894Y-68662588D01*
X112771860Y-68623142D01*
X112791287Y-68586797D01*
X112817435Y-68554935D01*
X112849297Y-68528787D01*
X112885642Y-68509360D01*
X112925088Y-68497394D01*
X112972243Y-68492750D01*
X114040257Y-68492750D01*
X114087412Y-68497394D01*
X114087412Y-68497394D01*
G37*
G36*
X111276000Y-69413500D02*
G01*
X109674000Y-69413500D01*
X109674000Y-60761500D01*
X111276000Y-60761500D01*
X111276000Y-69413500D01*
X111276000Y-69413500D01*
G37*
G36*
X99876000Y-69413500D02*
G01*
X98274000Y-69413500D01*
X98274000Y-60761500D01*
X99876000Y-60761500D01*
X99876000Y-69413500D01*
X99876000Y-69413500D01*
G37*
G36*
X78556104Y-64228347D02*
G01*
X78592644Y-64239432D01*
X78626321Y-64257433D01*
X78655841Y-64281659D01*
X78680067Y-64311179D01*
X78698068Y-64344856D01*
X78709153Y-64381396D01*
X78713500Y-64425538D01*
X78713500Y-65374462D01*
X78709153Y-65418604D01*
X78698068Y-65455144D01*
X78680067Y-65488821D01*
X78655841Y-65518341D01*
X78626321Y-65542567D01*
X78592644Y-65560568D01*
X78556104Y-65571653D01*
X78511962Y-65576000D01*
X77063038Y-65576000D01*
X77018896Y-65571653D01*
X76982356Y-65560568D01*
X76948679Y-65542567D01*
X76919159Y-65518341D01*
X76894933Y-65488821D01*
X76876932Y-65455144D01*
X76865847Y-65418604D01*
X76861500Y-65374462D01*
X76861500Y-64425538D01*
X76865847Y-64381396D01*
X76876932Y-64344856D01*
X76894933Y-64311179D01*
X76919159Y-64281659D01*
X76948679Y-64257433D01*
X76982356Y-64239432D01*
X77018896Y-64228347D01*
X77063038Y-64224000D01*
X78511962Y-64224000D01*
X78556104Y-64228347D01*
X78556104Y-64228347D01*
G37*
G36*
X94044434Y-63522436D02*
G01*
X94084284Y-63534524D01*
X94120999Y-63554149D01*
X94153186Y-63580564D01*
X94179601Y-63612751D01*
X94199226Y-63649466D01*
X94211314Y-63689316D01*
X94216000Y-63736891D01*
X94216000Y-64850609D01*
X94211314Y-64898184D01*
X94199226Y-64938034D01*
X94179601Y-64974749D01*
X94153186Y-65006936D01*
X94120999Y-65033351D01*
X94084284Y-65052976D01*
X94044434Y-65065064D01*
X93996859Y-65069750D01*
X93333141Y-65069750D01*
X93285566Y-65065064D01*
X93245716Y-65052976D01*
X93209001Y-65033351D01*
X93176814Y-65006936D01*
X93150399Y-64974749D01*
X93130774Y-64938034D01*
X93118686Y-64898184D01*
X93114000Y-64850609D01*
X93114000Y-63736891D01*
X93118686Y-63689316D01*
X93130774Y-63649466D01*
X93150399Y-63612751D01*
X93176814Y-63580564D01*
X93209001Y-63554149D01*
X93245716Y-63534524D01*
X93285566Y-63522436D01*
X93333141Y-63517750D01*
X93996859Y-63517750D01*
X94044434Y-63522436D01*
X94044434Y-63522436D01*
G37*
G36*
X95944434Y-63522436D02*
G01*
X95984284Y-63534524D01*
X96020999Y-63554149D01*
X96053186Y-63580564D01*
X96079601Y-63612751D01*
X96099226Y-63649466D01*
X96111314Y-63689316D01*
X96116000Y-63736891D01*
X96116000Y-64850609D01*
X96111314Y-64898184D01*
X96099226Y-64938034D01*
X96079601Y-64974749D01*
X96053186Y-65006936D01*
X96020999Y-65033351D01*
X95984284Y-65052976D01*
X95944434Y-65065064D01*
X95896859Y-65069750D01*
X95233141Y-65069750D01*
X95185566Y-65065064D01*
X95145716Y-65052976D01*
X95109001Y-65033351D01*
X95076814Y-65006936D01*
X95050399Y-64974749D01*
X95030774Y-64938034D01*
X95018686Y-64898184D01*
X95014000Y-64850609D01*
X95014000Y-63736891D01*
X95018686Y-63689316D01*
X95030774Y-63649466D01*
X95050399Y-63612751D01*
X95076814Y-63580564D01*
X95109001Y-63554149D01*
X95145716Y-63534524D01*
X95185566Y-63522436D01*
X95233141Y-63517750D01*
X95896859Y-63517750D01*
X95944434Y-63522436D01*
X95944434Y-63522436D01*
G37*
G36*
X114269434Y-61681186D02*
G01*
X114309284Y-61693274D01*
X114345999Y-61712899D01*
X114378186Y-61739314D01*
X114404601Y-61771501D01*
X114424226Y-61808216D01*
X114436314Y-61848066D01*
X114441000Y-61895641D01*
X114441000Y-62559359D01*
X114436314Y-62606934D01*
X114424226Y-62646784D01*
X114404601Y-62683499D01*
X114378186Y-62715686D01*
X114345999Y-62742101D01*
X114309284Y-62761726D01*
X114269434Y-62773814D01*
X114221859Y-62778500D01*
X113108141Y-62778500D01*
X113060566Y-62773814D01*
X113020716Y-62761726D01*
X112984001Y-62742101D01*
X112951814Y-62715686D01*
X112925399Y-62683499D01*
X112905774Y-62646784D01*
X112893686Y-62606934D01*
X112889000Y-62559359D01*
X112889000Y-61895641D01*
X112893686Y-61848066D01*
X112905774Y-61808216D01*
X112925399Y-61771501D01*
X112951814Y-61739314D01*
X112984001Y-61712899D01*
X113020716Y-61693274D01*
X113060566Y-61681186D01*
X113108141Y-61676500D01*
X114221859Y-61676500D01*
X114269434Y-61681186D01*
X114269434Y-61681186D01*
G37*
G36*
X78556104Y-61428347D02*
G01*
X78592644Y-61439432D01*
X78626321Y-61457433D01*
X78655841Y-61481659D01*
X78680067Y-61511179D01*
X78698068Y-61544856D01*
X78709153Y-61581396D01*
X78713500Y-61625538D01*
X78713500Y-62574462D01*
X78709153Y-62618604D01*
X78698068Y-62655144D01*
X78680067Y-62688821D01*
X78655841Y-62718341D01*
X78626321Y-62742567D01*
X78592644Y-62760568D01*
X78556104Y-62771653D01*
X78511962Y-62776000D01*
X77063038Y-62776000D01*
X77018896Y-62771653D01*
X76982356Y-62760568D01*
X76948679Y-62742567D01*
X76919159Y-62718341D01*
X76894933Y-62688821D01*
X76876932Y-62655144D01*
X76865847Y-62618604D01*
X76861500Y-62574462D01*
X76861500Y-61625538D01*
X76865847Y-61581396D01*
X76876932Y-61544856D01*
X76894933Y-61511179D01*
X76919159Y-61481659D01*
X76948679Y-61457433D01*
X76982356Y-61439432D01*
X77018896Y-61428347D01*
X77063038Y-61424000D01*
X78511962Y-61424000D01*
X78556104Y-61428347D01*
X78556104Y-61428347D01*
G37*
G36*
X114269434Y-59781186D02*
G01*
X114309284Y-59793274D01*
X114345999Y-59812899D01*
X114378186Y-59839314D01*
X114404601Y-59871501D01*
X114424226Y-59908216D01*
X114436314Y-59948066D01*
X114441000Y-59995641D01*
X114441000Y-60659359D01*
X114436314Y-60706934D01*
X114424226Y-60746784D01*
X114404601Y-60783499D01*
X114378186Y-60815686D01*
X114345999Y-60842101D01*
X114309284Y-60861726D01*
X114269434Y-60873814D01*
X114221859Y-60878500D01*
X113108141Y-60878500D01*
X113060566Y-60873814D01*
X113020716Y-60861726D01*
X112984001Y-60842101D01*
X112951814Y-60815686D01*
X112925399Y-60783499D01*
X112905774Y-60746784D01*
X112893686Y-60706934D01*
X112889000Y-60659359D01*
X112889000Y-59995641D01*
X112893686Y-59948066D01*
X112905774Y-59908216D01*
X112925399Y-59871501D01*
X112951814Y-59839314D01*
X112984001Y-59812899D01*
X113020716Y-59793274D01*
X113060566Y-59781186D01*
X113108141Y-59776500D01*
X114221859Y-59776500D01*
X114269434Y-59781186D01*
X114269434Y-59781186D01*
G37*
G36*
X109101000Y-60188500D02*
G01*
X100449000Y-60188500D01*
X100449000Y-58586500D01*
X109101000Y-58586500D01*
X109101000Y-60188500D01*
X109101000Y-60188500D01*
G37*
G36*
X147529750Y-60058500D02*
G01*
X145522750Y-60058500D01*
X145522750Y-58051500D01*
X147529750Y-58051500D01*
X147529750Y-60058500D01*
X147529750Y-60058500D01*
G37*
G36*
X125062675Y-58056988D02*
G01*
X125228960Y-58090063D01*
X125411586Y-58165709D01*
X125575944Y-58275530D01*
X125715720Y-58415306D01*
X125825541Y-58579664D01*
X125901187Y-58762290D01*
X125939750Y-58956164D01*
X125939750Y-59153836D01*
X125901187Y-59347710D01*
X125825541Y-59530336D01*
X125715720Y-59694694D01*
X125575944Y-59834470D01*
X125411586Y-59944291D01*
X125228960Y-60019937D01*
X125062675Y-60053012D01*
X125035087Y-60058500D01*
X124837413Y-60058500D01*
X124809825Y-60053012D01*
X124643540Y-60019937D01*
X124460914Y-59944291D01*
X124296556Y-59834470D01*
X124156780Y-59694694D01*
X124046959Y-59530336D01*
X123971313Y-59347710D01*
X123932750Y-59153836D01*
X123932750Y-58956164D01*
X123971313Y-58762290D01*
X124046959Y-58579664D01*
X124156780Y-58415306D01*
X124296556Y-58275530D01*
X124460914Y-58165709D01*
X124643540Y-58090063D01*
X124809825Y-58056988D01*
X124837413Y-58051500D01*
X125035087Y-58051500D01*
X125062675Y-58056988D01*
X125062675Y-58056988D01*
G37*
G36*
X144112675Y-58056988D02*
G01*
X144278960Y-58090063D01*
X144461586Y-58165709D01*
X144625944Y-58275530D01*
X144765720Y-58415306D01*
X144875541Y-58579664D01*
X144951187Y-58762290D01*
X144989750Y-58956164D01*
X144989750Y-59153836D01*
X144951187Y-59347710D01*
X144875541Y-59530336D01*
X144765720Y-59694694D01*
X144625944Y-59834470D01*
X144461586Y-59944291D01*
X144278960Y-60019937D01*
X144112675Y-60053012D01*
X144085087Y-60058500D01*
X143887413Y-60058500D01*
X143859825Y-60053012D01*
X143693540Y-60019937D01*
X143510914Y-59944291D01*
X143346556Y-59834470D01*
X143206780Y-59694694D01*
X143096959Y-59530336D01*
X143021313Y-59347710D01*
X142982750Y-59153836D01*
X142982750Y-58956164D01*
X143021313Y-58762290D01*
X143096959Y-58579664D01*
X143206780Y-58415306D01*
X143346556Y-58275530D01*
X143510914Y-58165709D01*
X143693540Y-58090063D01*
X143859825Y-58056988D01*
X143887413Y-58051500D01*
X144085087Y-58051500D01*
X144112675Y-58056988D01*
X144112675Y-58056988D01*
G37*
G36*
X128479750Y-60058500D02*
G01*
X126472750Y-60058500D01*
X126472750Y-58051500D01*
X128479750Y-58051500D01*
X128479750Y-60058500D01*
X128479750Y-60058500D01*
G37*
G36*
X96489434Y-58347436D02*
G01*
X96529284Y-58359524D01*
X96565999Y-58379149D01*
X96598186Y-58405564D01*
X96624601Y-58437751D01*
X96644226Y-58474466D01*
X96656314Y-58514316D01*
X96661000Y-58561891D01*
X96661000Y-59225609D01*
X96656314Y-59273184D01*
X96644226Y-59313034D01*
X96624601Y-59349749D01*
X96598186Y-59381936D01*
X96565999Y-59408351D01*
X96529284Y-59427976D01*
X96489434Y-59440064D01*
X96441859Y-59444750D01*
X95328141Y-59444750D01*
X95280566Y-59440064D01*
X95240716Y-59427976D01*
X95204001Y-59408351D01*
X95171814Y-59381936D01*
X95145399Y-59349749D01*
X95125774Y-59313034D01*
X95113686Y-59273184D01*
X95109000Y-59225609D01*
X95109000Y-58561891D01*
X95113686Y-58514316D01*
X95125774Y-58474466D01*
X95145399Y-58437751D01*
X95171814Y-58405564D01*
X95204001Y-58379149D01*
X95240716Y-58359524D01*
X95280566Y-58347436D01*
X95328141Y-58342750D01*
X96441859Y-58342750D01*
X96489434Y-58347436D01*
X96489434Y-58347436D01*
G37*
G36*
X84718662Y-58297394D02*
G01*
X84758108Y-58309360D01*
X84794453Y-58328787D01*
X84826315Y-58354935D01*
X84852463Y-58386797D01*
X84871890Y-58423142D01*
X84883856Y-58462588D01*
X84888500Y-58509743D01*
X84888500Y-59202757D01*
X84883856Y-59249912D01*
X84871890Y-59289358D01*
X84852463Y-59325703D01*
X84826315Y-59357565D01*
X84794453Y-59383713D01*
X84758108Y-59403140D01*
X84718662Y-59415106D01*
X84671507Y-59419750D01*
X83603493Y-59419750D01*
X83556338Y-59415106D01*
X83516892Y-59403140D01*
X83480547Y-59383713D01*
X83448685Y-59357565D01*
X83422537Y-59325703D01*
X83403110Y-59289358D01*
X83391144Y-59249912D01*
X83386500Y-59202757D01*
X83386500Y-58509743D01*
X83391144Y-58462588D01*
X83403110Y-58423142D01*
X83422537Y-58386797D01*
X83448685Y-58354935D01*
X83480547Y-58328787D01*
X83516892Y-58309360D01*
X83556338Y-58297394D01*
X83603493Y-58292750D01*
X84671507Y-58292750D01*
X84718662Y-58297394D01*
X84718662Y-58297394D01*
G37*
G36*
X92656162Y-58297394D02*
G01*
X92695608Y-58309360D01*
X92731953Y-58328787D01*
X92763815Y-58354935D01*
X92789963Y-58386797D01*
X92809390Y-58423142D01*
X92821356Y-58462588D01*
X92826000Y-58509743D01*
X92826000Y-59202757D01*
X92821356Y-59249912D01*
X92809390Y-59289358D01*
X92789963Y-59325703D01*
X92763815Y-59357565D01*
X92731953Y-59383713D01*
X92695608Y-59403140D01*
X92656162Y-59415106D01*
X92609007Y-59419750D01*
X91540993Y-59419750D01*
X91493838Y-59415106D01*
X91454392Y-59403140D01*
X91418047Y-59383713D01*
X91386185Y-59357565D01*
X91360037Y-59325703D01*
X91340610Y-59289358D01*
X91328644Y-59249912D01*
X91324000Y-59202757D01*
X91324000Y-58509743D01*
X91328644Y-58462588D01*
X91340610Y-58423142D01*
X91360037Y-58386797D01*
X91386185Y-58354935D01*
X91418047Y-58328787D01*
X91454392Y-58309360D01*
X91493838Y-58297394D01*
X91540993Y-58292750D01*
X92609007Y-58292750D01*
X92656162Y-58297394D01*
X92656162Y-58297394D01*
G37*
G36*
X80749912Y-58297394D02*
G01*
X80789358Y-58309360D01*
X80825703Y-58328787D01*
X80857565Y-58354935D01*
X80883713Y-58386797D01*
X80903140Y-58423142D01*
X80915106Y-58462588D01*
X80919750Y-58509743D01*
X80919750Y-59202757D01*
X80915106Y-59249912D01*
X80903140Y-59289358D01*
X80883713Y-59325703D01*
X80857565Y-59357565D01*
X80825703Y-59383713D01*
X80789358Y-59403140D01*
X80749912Y-59415106D01*
X80702757Y-59419750D01*
X79634743Y-59419750D01*
X79587588Y-59415106D01*
X79548142Y-59403140D01*
X79511797Y-59383713D01*
X79479935Y-59357565D01*
X79453787Y-59325703D01*
X79434360Y-59289358D01*
X79422394Y-59249912D01*
X79417750Y-59202757D01*
X79417750Y-58509743D01*
X79422394Y-58462588D01*
X79434360Y-58423142D01*
X79453787Y-58386797D01*
X79479935Y-58354935D01*
X79511797Y-58328787D01*
X79548142Y-58309360D01*
X79587588Y-58297394D01*
X79634743Y-58292750D01*
X80702757Y-58292750D01*
X80749912Y-58297394D01*
X80749912Y-58297394D01*
G37*
G36*
X92656162Y-56472394D02*
G01*
X92695608Y-56484360D01*
X92731953Y-56503787D01*
X92763815Y-56529935D01*
X92789963Y-56561797D01*
X92809390Y-56598142D01*
X92821356Y-56637588D01*
X92826000Y-56684743D01*
X92826000Y-57377757D01*
X92821356Y-57424912D01*
X92809390Y-57464358D01*
X92789963Y-57500703D01*
X92763815Y-57532565D01*
X92731953Y-57558713D01*
X92695608Y-57578140D01*
X92656162Y-57590106D01*
X92609007Y-57594750D01*
X91540993Y-57594750D01*
X91493838Y-57590106D01*
X91454392Y-57578140D01*
X91418047Y-57558713D01*
X91386185Y-57532565D01*
X91360037Y-57500703D01*
X91340610Y-57464358D01*
X91328644Y-57424912D01*
X91324000Y-57377757D01*
X91324000Y-56684743D01*
X91328644Y-56637588D01*
X91340610Y-56598142D01*
X91360037Y-56561797D01*
X91386185Y-56529935D01*
X91418047Y-56503787D01*
X91454392Y-56484360D01*
X91493838Y-56472394D01*
X91540993Y-56467750D01*
X92609007Y-56467750D01*
X92656162Y-56472394D01*
X92656162Y-56472394D01*
G37*
G36*
X84718662Y-56472394D02*
G01*
X84758108Y-56484360D01*
X84794453Y-56503787D01*
X84826315Y-56529935D01*
X84852463Y-56561797D01*
X84871890Y-56598142D01*
X84883856Y-56637588D01*
X84888500Y-56684743D01*
X84888500Y-57377757D01*
X84883856Y-57424912D01*
X84871890Y-57464358D01*
X84852463Y-57500703D01*
X84826315Y-57532565D01*
X84794453Y-57558713D01*
X84758108Y-57578140D01*
X84718662Y-57590106D01*
X84671507Y-57594750D01*
X83603493Y-57594750D01*
X83556338Y-57590106D01*
X83516892Y-57578140D01*
X83480547Y-57558713D01*
X83448685Y-57532565D01*
X83422537Y-57500703D01*
X83403110Y-57464358D01*
X83391144Y-57424912D01*
X83386500Y-57377757D01*
X83386500Y-56684743D01*
X83391144Y-56637588D01*
X83403110Y-56598142D01*
X83422537Y-56561797D01*
X83448685Y-56529935D01*
X83480547Y-56503787D01*
X83516892Y-56484360D01*
X83556338Y-56472394D01*
X83603493Y-56467750D01*
X84671507Y-56467750D01*
X84718662Y-56472394D01*
X84718662Y-56472394D01*
G37*
G36*
X80749912Y-56472394D02*
G01*
X80789358Y-56484360D01*
X80825703Y-56503787D01*
X80857565Y-56529935D01*
X80883713Y-56561797D01*
X80903140Y-56598142D01*
X80915106Y-56637588D01*
X80919750Y-56684743D01*
X80919750Y-57377757D01*
X80915106Y-57424912D01*
X80903140Y-57464358D01*
X80883713Y-57500703D01*
X80857565Y-57532565D01*
X80825703Y-57558713D01*
X80789358Y-57578140D01*
X80749912Y-57590106D01*
X80702757Y-57594750D01*
X79634743Y-57594750D01*
X79587588Y-57590106D01*
X79548142Y-57578140D01*
X79511797Y-57558713D01*
X79479935Y-57532565D01*
X79453787Y-57500703D01*
X79434360Y-57464358D01*
X79422394Y-57424912D01*
X79417750Y-57377757D01*
X79417750Y-56684743D01*
X79422394Y-56637588D01*
X79434360Y-56598142D01*
X79453787Y-56561797D01*
X79479935Y-56529935D01*
X79511797Y-56503787D01*
X79548142Y-56484360D01*
X79587588Y-56472394D01*
X79634743Y-56467750D01*
X80702757Y-56467750D01*
X80749912Y-56472394D01*
X80749912Y-56472394D01*
G37*
G36*
X96489434Y-56447436D02*
G01*
X96529284Y-56459524D01*
X96565999Y-56479149D01*
X96598186Y-56505564D01*
X96624601Y-56537751D01*
X96644226Y-56574466D01*
X96656314Y-56614316D01*
X96661000Y-56661891D01*
X96661000Y-57325609D01*
X96656314Y-57373184D01*
X96644226Y-57413034D01*
X96624601Y-57449749D01*
X96598186Y-57481936D01*
X96565999Y-57508351D01*
X96529284Y-57527976D01*
X96489434Y-57540064D01*
X96441859Y-57544750D01*
X95328141Y-57544750D01*
X95280566Y-57540064D01*
X95240716Y-57527976D01*
X95204001Y-57508351D01*
X95171814Y-57481936D01*
X95145399Y-57449749D01*
X95125774Y-57413034D01*
X95113686Y-57373184D01*
X95109000Y-57325609D01*
X95109000Y-56661891D01*
X95113686Y-56614316D01*
X95125774Y-56574466D01*
X95145399Y-56537751D01*
X95171814Y-56505564D01*
X95204001Y-56479149D01*
X95240716Y-56459524D01*
X95280566Y-56447436D01*
X95328141Y-56442750D01*
X96441859Y-56442750D01*
X96489434Y-56447436D01*
X96489434Y-56447436D01*
G37*
G36*
X153844750Y-56126000D02*
G01*
X152542750Y-56126000D01*
X152542750Y-55124000D01*
X153844750Y-55124000D01*
X153844750Y-56126000D01*
X153844750Y-56126000D01*
G37*
G36*
X134794750Y-56126000D02*
G01*
X133492750Y-56126000D01*
X133492750Y-55124000D01*
X134794750Y-55124000D01*
X134794750Y-56126000D01*
X134794750Y-56126000D01*
G37*
G36*
X145852724Y-52008684D02*
G01*
X146069124Y-52098320D01*
X146224873Y-52162833D01*
X146559798Y-52386623D01*
X146844627Y-52671452D01*
X147068417Y-53006377D01*
X147129725Y-53154389D01*
X147222566Y-53378526D01*
X147301150Y-53773594D01*
X147301150Y-54176406D01*
X147222566Y-54571474D01*
X147171701Y-54694272D01*
X147068417Y-54943623D01*
X146844627Y-55278548D01*
X146559798Y-55563377D01*
X146224873Y-55787167D01*
X146070724Y-55851017D01*
X145852724Y-55941316D01*
X145457656Y-56019900D01*
X145054844Y-56019900D01*
X144659776Y-55941316D01*
X144441776Y-55851017D01*
X144287627Y-55787167D01*
X143952702Y-55563377D01*
X143667873Y-55278548D01*
X143444083Y-54943623D01*
X143340799Y-54694272D01*
X143289934Y-54571474D01*
X143211350Y-54176406D01*
X143211350Y-53773594D01*
X143289934Y-53378526D01*
X143382775Y-53154389D01*
X143444083Y-53006377D01*
X143667873Y-52671452D01*
X143952702Y-52386623D01*
X144287627Y-52162833D01*
X144443376Y-52098320D01*
X144659776Y-52008684D01*
X145054844Y-51930100D01*
X145457656Y-51930100D01*
X145852724Y-52008684D01*
X145852724Y-52008684D01*
G37*
G36*
X126802724Y-52008684D02*
G01*
X127019124Y-52098320D01*
X127174873Y-52162833D01*
X127509798Y-52386623D01*
X127794627Y-52671452D01*
X128018417Y-53006377D01*
X128079725Y-53154389D01*
X128172566Y-53378526D01*
X128251150Y-53773594D01*
X128251150Y-54176406D01*
X128172566Y-54571474D01*
X128121701Y-54694272D01*
X128018417Y-54943623D01*
X127794627Y-55278548D01*
X127509798Y-55563377D01*
X127174873Y-55787167D01*
X127020724Y-55851017D01*
X126802724Y-55941316D01*
X126407656Y-56019900D01*
X126004844Y-56019900D01*
X125609776Y-55941316D01*
X125391776Y-55851017D01*
X125237627Y-55787167D01*
X124902702Y-55563377D01*
X124617873Y-55278548D01*
X124394083Y-54943623D01*
X124290799Y-54694272D01*
X124239934Y-54571474D01*
X124161350Y-54176406D01*
X124161350Y-53773594D01*
X124239934Y-53378526D01*
X124332775Y-53154389D01*
X124394083Y-53006377D01*
X124617873Y-52671452D01*
X124902702Y-52386623D01*
X125237627Y-52162833D01*
X125393376Y-52098320D01*
X125609776Y-52008684D01*
X126004844Y-51930100D01*
X126407656Y-51930100D01*
X126802724Y-52008684D01*
X126802724Y-52008684D01*
G37*
G36*
X121396354Y-53084585D02*
G01*
X121564876Y-53154389D01*
X121716541Y-53255728D01*
X121845522Y-53384709D01*
X121946861Y-53536374D01*
X122016665Y-53704896D01*
X122052250Y-53883797D01*
X122052250Y-54066203D01*
X122016665Y-54245104D01*
X121946861Y-54413626D01*
X121845522Y-54565291D01*
X121716541Y-54694272D01*
X121564876Y-54795611D01*
X121396354Y-54865415D01*
X121217453Y-54901000D01*
X121035047Y-54901000D01*
X120856146Y-54865415D01*
X120687624Y-54795611D01*
X120535959Y-54694272D01*
X120406978Y-54565291D01*
X120305639Y-54413626D01*
X120235835Y-54245104D01*
X120200250Y-54066203D01*
X120200250Y-53883797D01*
X120235835Y-53704896D01*
X120305639Y-53536374D01*
X120406978Y-53384709D01*
X120535959Y-53255728D01*
X120687624Y-53154389D01*
X120856146Y-53084585D01*
X121035047Y-53049000D01*
X121217453Y-53049000D01*
X121396354Y-53084585D01*
X121396354Y-53084585D01*
G37*
G36*
X131556354Y-53084585D02*
G01*
X131724876Y-53154389D01*
X131876541Y-53255728D01*
X132005522Y-53384709D01*
X132106861Y-53536374D01*
X132176665Y-53704896D01*
X132212250Y-53883797D01*
X132212250Y-54066203D01*
X132176665Y-54245104D01*
X132106861Y-54413626D01*
X132005522Y-54565291D01*
X131876541Y-54694272D01*
X131724876Y-54795611D01*
X131556354Y-54865415D01*
X131377453Y-54901000D01*
X131195047Y-54901000D01*
X131016146Y-54865415D01*
X130847624Y-54795611D01*
X130695959Y-54694272D01*
X130566978Y-54565291D01*
X130465639Y-54413626D01*
X130395835Y-54245104D01*
X130360250Y-54066203D01*
X130360250Y-53883797D01*
X130395835Y-53704896D01*
X130465639Y-53536374D01*
X130566978Y-53384709D01*
X130695959Y-53255728D01*
X130847624Y-53154389D01*
X131016146Y-53084585D01*
X131195047Y-53049000D01*
X131377453Y-53049000D01*
X131556354Y-53084585D01*
X131556354Y-53084585D01*
G37*
G36*
X140446354Y-53084585D02*
G01*
X140614876Y-53154389D01*
X140766541Y-53255728D01*
X140895522Y-53384709D01*
X140996861Y-53536374D01*
X141066665Y-53704896D01*
X141102250Y-53883797D01*
X141102250Y-54066203D01*
X141066665Y-54245104D01*
X140996861Y-54413626D01*
X140895522Y-54565291D01*
X140766541Y-54694272D01*
X140614876Y-54795611D01*
X140446354Y-54865415D01*
X140267453Y-54901000D01*
X140085047Y-54901000D01*
X139906146Y-54865415D01*
X139737624Y-54795611D01*
X139585959Y-54694272D01*
X139456978Y-54565291D01*
X139355639Y-54413626D01*
X139285835Y-54245104D01*
X139250250Y-54066203D01*
X139250250Y-53883797D01*
X139285835Y-53704896D01*
X139355639Y-53536374D01*
X139456978Y-53384709D01*
X139585959Y-53255728D01*
X139737624Y-53154389D01*
X139906146Y-53084585D01*
X140085047Y-53049000D01*
X140267453Y-53049000D01*
X140446354Y-53084585D01*
X140446354Y-53084585D01*
G37*
G36*
X150606354Y-53084585D02*
G01*
X150774876Y-53154389D01*
X150926541Y-53255728D01*
X151055522Y-53384709D01*
X151156861Y-53536374D01*
X151226665Y-53704896D01*
X151262250Y-53883797D01*
X151262250Y-54066203D01*
X151226665Y-54245104D01*
X151156861Y-54413626D01*
X151055522Y-54565291D01*
X150926541Y-54694272D01*
X150774876Y-54795611D01*
X150606354Y-54865415D01*
X150427453Y-54901000D01*
X150245047Y-54901000D01*
X150066146Y-54865415D01*
X149897624Y-54795611D01*
X149745959Y-54694272D01*
X149616978Y-54565291D01*
X149515639Y-54413626D01*
X149445835Y-54245104D01*
X149410250Y-54066203D01*
X149410250Y-53883797D01*
X149445835Y-53704896D01*
X149515639Y-53536374D01*
X149616978Y-53384709D01*
X149745959Y-53255728D01*
X149897624Y-53154389D01*
X150066146Y-53084585D01*
X150245047Y-53049000D01*
X150427453Y-53049000D01*
X150606354Y-53084585D01*
X150606354Y-53084585D01*
G37*
G36*
X109348184Y-52947436D02*
G01*
X109388034Y-52959524D01*
X109424749Y-52979149D01*
X109456936Y-53005564D01*
X109483351Y-53037751D01*
X109502976Y-53074466D01*
X109515064Y-53114316D01*
X109519750Y-53161891D01*
X109519750Y-53825609D01*
X109515064Y-53873184D01*
X109502976Y-53913034D01*
X109483351Y-53949749D01*
X109456936Y-53981936D01*
X109424749Y-54008351D01*
X109388034Y-54027976D01*
X109348184Y-54040064D01*
X109300609Y-54044750D01*
X108186891Y-54044750D01*
X108139316Y-54040064D01*
X108099466Y-54027976D01*
X108062751Y-54008351D01*
X108030564Y-53981936D01*
X108004149Y-53949749D01*
X107984524Y-53913034D01*
X107972436Y-53873184D01*
X107967750Y-53825609D01*
X107967750Y-53161891D01*
X107972436Y-53114316D01*
X107984524Y-53074466D01*
X108004149Y-53037751D01*
X108030564Y-53005564D01*
X108062751Y-52979149D01*
X108099466Y-52959524D01*
X108139316Y-52947436D01*
X108186891Y-52942750D01*
X109300609Y-52942750D01*
X109348184Y-52947436D01*
X109348184Y-52947436D01*
G37*
G36*
X101410684Y-52947436D02*
G01*
X101450534Y-52959524D01*
X101487249Y-52979149D01*
X101519436Y-53005564D01*
X101545851Y-53037751D01*
X101565476Y-53074466D01*
X101577564Y-53114316D01*
X101582250Y-53161891D01*
X101582250Y-53825609D01*
X101577564Y-53873184D01*
X101565476Y-53913034D01*
X101545851Y-53949749D01*
X101519436Y-53981936D01*
X101487249Y-54008351D01*
X101450534Y-54027976D01*
X101410684Y-54040064D01*
X101363109Y-54044750D01*
X100249391Y-54044750D01*
X100201816Y-54040064D01*
X100161966Y-54027976D01*
X100125251Y-54008351D01*
X100093064Y-53981936D01*
X100066649Y-53949749D01*
X100047024Y-53913034D01*
X100034936Y-53873184D01*
X100030250Y-53825609D01*
X100030250Y-53161891D01*
X100034936Y-53114316D01*
X100047024Y-53074466D01*
X100066649Y-53037751D01*
X100093064Y-53005564D01*
X100125251Y-52979149D01*
X100161966Y-52959524D01*
X100201816Y-52947436D01*
X100249391Y-52942750D01*
X101363109Y-52942750D01*
X101410684Y-52947436D01*
X101410684Y-52947436D01*
G37*
G36*
X106626000Y-53888500D02*
G01*
X105124000Y-53888500D01*
X105124000Y-52586500D01*
X106626000Y-52586500D01*
X106626000Y-53888500D01*
X106626000Y-53888500D01*
G37*
G36*
X104426000Y-53888500D02*
G01*
X102924000Y-53888500D01*
X102924000Y-52586500D01*
X104426000Y-52586500D01*
X104426000Y-53888500D01*
X104426000Y-53888500D01*
G37*
G36*
X153844750Y-52826000D02*
G01*
X152542750Y-52826000D01*
X152542750Y-51824000D01*
X153844750Y-51824000D01*
X153844750Y-52826000D01*
X153844750Y-52826000D01*
G37*
G36*
X134794750Y-52826000D02*
G01*
X133492750Y-52826000D01*
X133492750Y-51824000D01*
X134794750Y-51824000D01*
X134794750Y-52826000D01*
X134794750Y-52826000D01*
G37*
G36*
X142779455Y-48798881D02*
G01*
X142784895Y-48799000D01*
X142872078Y-48799000D01*
X142888347Y-48802236D01*
X142907206Y-48804515D01*
X142923782Y-48805246D01*
X143008473Y-48826010D01*
X143013768Y-48827184D01*
X143099277Y-48844193D01*
X143114612Y-48850545D01*
X143132651Y-48856455D01*
X143148771Y-48860407D01*
X143227754Y-48897280D01*
X143232744Y-48899477D01*
X143313295Y-48932842D01*
X143327091Y-48942060D01*
X143343643Y-48951382D01*
X143358676Y-48958400D01*
X143428944Y-49009971D01*
X143433442Y-49013122D01*
X143505906Y-49061541D01*
X143517633Y-49073268D01*
X143532059Y-49085648D01*
X143545429Y-49095461D01*
X143594937Y-49149537D01*
X143604271Y-49159733D01*
X143608079Y-49163714D01*
X143669709Y-49225344D01*
X143678924Y-49239135D01*
X143690646Y-49254078D01*
X143701855Y-49266321D01*
X143747049Y-49340874D01*
X143749996Y-49345501D01*
X143798408Y-49417955D01*
X143804755Y-49433277D01*
X143813342Y-49450231D01*
X143821941Y-49464417D01*
X143851728Y-49546368D01*
X143853702Y-49551448D01*
X143887057Y-49631973D01*
X143887057Y-49631974D01*
X143890291Y-49648233D01*
X143895408Y-49666542D01*
X143901075Y-49682134D01*
X143914305Y-49768345D01*
X143915251Y-49773713D01*
X143932250Y-49859173D01*
X143932250Y-49875752D01*
X143933694Y-49894692D01*
X143936213Y-49911104D01*
X143932370Y-49998249D01*
X143932250Y-50003689D01*
X143932250Y-50090825D01*
X143929016Y-50107083D01*
X143926738Y-50125941D01*
X143926006Y-50142531D01*
X143905238Y-50227237D01*
X143904062Y-50232537D01*
X143887057Y-50318027D01*
X143880707Y-50333357D01*
X143874799Y-50351393D01*
X143870845Y-50367520D01*
X143833961Y-50446526D01*
X143831761Y-50451523D01*
X143798408Y-50532045D01*
X143789194Y-50545835D01*
X143779872Y-50562387D01*
X143772852Y-50577424D01*
X143721261Y-50647720D01*
X143718116Y-50652210D01*
X143669711Y-50724654D01*
X143612710Y-50781655D01*
X143608061Y-50786563D01*
X143268333Y-51165190D01*
X142282973Y-52263376D01*
X142154929Y-52380602D01*
X142055880Y-52440646D01*
X141956833Y-52500689D01*
X141739116Y-52579823D01*
X141510145Y-52614961D01*
X141278720Y-52604754D01*
X141053731Y-52549593D01*
X140948977Y-52500689D01*
X140843829Y-52451602D01*
X140747088Y-52380602D01*
X140657073Y-52314539D01*
X140541683Y-52188500D01*
X140500648Y-52143679D01*
X140427074Y-52022310D01*
X140380561Y-51945583D01*
X140301427Y-51727866D01*
X140266289Y-51498895D01*
X140276496Y-51267470D01*
X140331657Y-51042481D01*
X140383222Y-50932028D01*
X140429648Y-50832580D01*
X140429650Y-50832577D01*
X140532364Y-50692622D01*
X141278659Y-49860875D01*
X141819037Y-49258621D01*
X141829931Y-49244589D01*
X141842789Y-49225346D01*
X141899823Y-49168312D01*
X141904473Y-49163403D01*
X141919528Y-49146624D01*
X141940951Y-49127011D01*
X141944932Y-49123203D01*
X142006596Y-49061539D01*
X142020393Y-49052320D01*
X142035352Y-49040585D01*
X142047571Y-49029398D01*
X142079635Y-49009961D01*
X142122080Y-48984231D01*
X142126671Y-48981308D01*
X142199205Y-48932842D01*
X142214550Y-48926486D01*
X142231498Y-48917901D01*
X142245666Y-48909312D01*
X142245667Y-48909312D01*
X142245668Y-48909311D01*
X142327562Y-48879545D01*
X142332660Y-48877563D01*
X142413223Y-48844193D01*
X142429502Y-48840955D01*
X142447792Y-48835844D01*
X142463385Y-48830177D01*
X142549550Y-48816954D01*
X142554913Y-48816009D01*
X142640423Y-48799000D01*
X142657016Y-48799000D01*
X142675959Y-48797555D01*
X142692356Y-48795039D01*
X142779455Y-48798881D01*
X142779455Y-48798881D01*
G37*
G36*
X123729455Y-48798881D02*
G01*
X123734895Y-48799000D01*
X123822078Y-48799000D01*
X123838347Y-48802236D01*
X123857206Y-48804515D01*
X123873782Y-48805246D01*
X123958473Y-48826010D01*
X123963768Y-48827184D01*
X124049277Y-48844193D01*
X124064612Y-48850545D01*
X124082651Y-48856455D01*
X124098771Y-48860407D01*
X124177754Y-48897280D01*
X124182744Y-48899477D01*
X124263295Y-48932842D01*
X124277091Y-48942060D01*
X124293643Y-48951382D01*
X124308676Y-48958400D01*
X124378944Y-49009971D01*
X124383442Y-49013122D01*
X124455906Y-49061541D01*
X124467633Y-49073268D01*
X124482059Y-49085648D01*
X124495429Y-49095461D01*
X124544937Y-49149537D01*
X124554271Y-49159733D01*
X124558079Y-49163714D01*
X124619709Y-49225344D01*
X124628924Y-49239135D01*
X124640646Y-49254078D01*
X124651855Y-49266321D01*
X124697049Y-49340874D01*
X124699996Y-49345501D01*
X124748408Y-49417955D01*
X124754755Y-49433277D01*
X124763342Y-49450231D01*
X124771941Y-49464417D01*
X124801728Y-49546368D01*
X124803702Y-49551448D01*
X124837057Y-49631973D01*
X124837057Y-49631974D01*
X124840291Y-49648233D01*
X124845408Y-49666542D01*
X124851075Y-49682134D01*
X124864305Y-49768345D01*
X124865251Y-49773713D01*
X124882250Y-49859173D01*
X124882250Y-49875752D01*
X124883694Y-49894692D01*
X124886213Y-49911104D01*
X124882370Y-49998249D01*
X124882250Y-50003689D01*
X124882250Y-50090825D01*
X124879016Y-50107083D01*
X124876738Y-50125941D01*
X124876006Y-50142531D01*
X124855238Y-50227237D01*
X124854062Y-50232537D01*
X124837057Y-50318027D01*
X124830707Y-50333357D01*
X124824799Y-50351393D01*
X124820845Y-50367520D01*
X124783961Y-50446526D01*
X124781761Y-50451523D01*
X124748408Y-50532045D01*
X124739194Y-50545835D01*
X124729872Y-50562387D01*
X124722852Y-50577424D01*
X124671261Y-50647720D01*
X124668116Y-50652210D01*
X124619711Y-50724654D01*
X124562710Y-50781655D01*
X124558061Y-50786563D01*
X124218333Y-51165190D01*
X123232973Y-52263376D01*
X123104929Y-52380602D01*
X123005880Y-52440646D01*
X122906833Y-52500689D01*
X122689116Y-52579823D01*
X122460145Y-52614961D01*
X122228720Y-52604754D01*
X122003731Y-52549593D01*
X121898977Y-52500689D01*
X121793829Y-52451602D01*
X121697088Y-52380602D01*
X121607073Y-52314539D01*
X121491683Y-52188500D01*
X121450648Y-52143679D01*
X121377074Y-52022310D01*
X121330561Y-51945583D01*
X121251427Y-51727866D01*
X121216289Y-51498895D01*
X121226496Y-51267470D01*
X121281657Y-51042481D01*
X121333222Y-50932028D01*
X121379648Y-50832580D01*
X121379650Y-50832577D01*
X121482364Y-50692622D01*
X122228659Y-49860875D01*
X122769037Y-49258621D01*
X122779931Y-49244589D01*
X122792789Y-49225346D01*
X122849823Y-49168312D01*
X122854473Y-49163403D01*
X122869528Y-49146624D01*
X122890951Y-49127011D01*
X122894932Y-49123203D01*
X122956596Y-49061539D01*
X122970393Y-49052320D01*
X122985352Y-49040585D01*
X122997571Y-49029398D01*
X123029635Y-49009961D01*
X123072080Y-48984231D01*
X123076671Y-48981308D01*
X123149205Y-48932842D01*
X123164550Y-48926486D01*
X123181498Y-48917901D01*
X123195666Y-48909312D01*
X123195667Y-48909312D01*
X123195668Y-48909311D01*
X123277562Y-48879545D01*
X123282660Y-48877563D01*
X123363223Y-48844193D01*
X123379502Y-48840955D01*
X123397792Y-48835844D01*
X123413385Y-48830177D01*
X123499550Y-48816954D01*
X123504913Y-48816009D01*
X123590423Y-48799000D01*
X123607016Y-48799000D01*
X123625959Y-48797555D01*
X123642356Y-48795039D01*
X123729455Y-48798881D01*
X123729455Y-48798881D01*
G37*
G36*
X104426000Y-52188500D02*
G01*
X102924000Y-52188500D01*
X102924000Y-50886500D01*
X104426000Y-50886500D01*
X104426000Y-52188500D01*
X104426000Y-52188500D01*
G37*
G36*
X106626000Y-52188500D02*
G01*
X105124000Y-52188500D01*
X105124000Y-50886500D01*
X106626000Y-50886500D01*
X106626000Y-52188500D01*
X106626000Y-52188500D01*
G37*
G36*
X109348184Y-51047436D02*
G01*
X109388034Y-51059524D01*
X109424749Y-51079149D01*
X109456936Y-51105564D01*
X109483351Y-51137751D01*
X109502976Y-51174466D01*
X109515064Y-51214316D01*
X109519750Y-51261891D01*
X109519750Y-51925609D01*
X109515064Y-51973184D01*
X109502976Y-52013034D01*
X109483351Y-52049749D01*
X109456936Y-52081936D01*
X109424749Y-52108351D01*
X109388034Y-52127976D01*
X109348184Y-52140064D01*
X109300609Y-52144750D01*
X108186891Y-52144750D01*
X108139316Y-52140064D01*
X108099466Y-52127976D01*
X108062751Y-52108351D01*
X108030564Y-52081936D01*
X108004149Y-52049749D01*
X107984524Y-52013034D01*
X107972436Y-51973184D01*
X107967750Y-51925609D01*
X107967750Y-51261891D01*
X107972436Y-51214316D01*
X107984524Y-51174466D01*
X108004149Y-51137751D01*
X108030564Y-51105564D01*
X108062751Y-51079149D01*
X108099466Y-51059524D01*
X108139316Y-51047436D01*
X108186891Y-51042750D01*
X109300609Y-51042750D01*
X109348184Y-51047436D01*
X109348184Y-51047436D01*
G37*
G36*
X101410684Y-51047436D02*
G01*
X101450534Y-51059524D01*
X101487249Y-51079149D01*
X101519436Y-51105564D01*
X101545851Y-51137751D01*
X101565476Y-51174466D01*
X101577564Y-51214316D01*
X101582250Y-51261891D01*
X101582250Y-51925609D01*
X101577564Y-51973184D01*
X101565476Y-52013034D01*
X101545851Y-52049749D01*
X101519436Y-52081936D01*
X101487249Y-52108351D01*
X101450534Y-52127976D01*
X101410684Y-52140064D01*
X101363109Y-52144750D01*
X100249391Y-52144750D01*
X100201816Y-52140064D01*
X100161966Y-52127976D01*
X100125251Y-52108351D01*
X100093064Y-52081936D01*
X100066649Y-52049749D01*
X100047024Y-52013034D01*
X100034936Y-51973184D01*
X100030250Y-51925609D01*
X100030250Y-51261891D01*
X100034936Y-51214316D01*
X100047024Y-51174466D01*
X100066649Y-51137751D01*
X100093064Y-51105564D01*
X100125251Y-51079149D01*
X100161966Y-51059524D01*
X100201816Y-51047436D01*
X100249391Y-51042750D01*
X101363109Y-51042750D01*
X101410684Y-51047436D01*
X101410684Y-51047436D01*
G37*
G36*
X79076627Y-49149537D02*
G01*
X79246466Y-49201057D01*
X79402991Y-49284722D01*
X79438729Y-49314052D01*
X79540186Y-49397314D01*
X79595254Y-49464416D01*
X79652778Y-49534509D01*
X79736443Y-49691034D01*
X79787963Y-49860873D01*
X79787963Y-49860875D01*
X79801000Y-49993240D01*
X79801000Y-51081760D01*
X79796895Y-51123442D01*
X79787963Y-51214127D01*
X79736443Y-51383966D01*
X79652778Y-51540491D01*
X79623448Y-51576229D01*
X79540186Y-51677686D01*
X79402989Y-51790279D01*
X79255245Y-51869250D01*
X79246465Y-51873943D01*
X79076626Y-51925463D01*
X78900000Y-51942859D01*
X78723373Y-51925463D01*
X78553534Y-51873943D01*
X78397009Y-51790278D01*
X78320966Y-51727871D01*
X78259814Y-51677686D01*
X78147221Y-51540489D01*
X78063558Y-51383967D01*
X78043623Y-51318250D01*
X78012037Y-51214126D01*
X78004515Y-51137751D01*
X77999000Y-51081759D01*
X77999001Y-49993240D01*
X78012038Y-49860875D01*
X78012038Y-49860873D01*
X78063558Y-49691034D01*
X78147223Y-49534509D01*
X78204747Y-49464416D01*
X78259815Y-49397314D01*
X78361272Y-49314052D01*
X78397010Y-49284722D01*
X78553535Y-49201057D01*
X78723374Y-49149537D01*
X78900000Y-49132141D01*
X79076627Y-49149537D01*
X79076627Y-49149537D01*
G37*
G36*
X86376627Y-49149537D02*
G01*
X86546466Y-49201057D01*
X86702991Y-49284722D01*
X86738729Y-49314052D01*
X86840186Y-49397314D01*
X86895254Y-49464416D01*
X86952778Y-49534509D01*
X87036443Y-49691034D01*
X87087963Y-49860873D01*
X87087963Y-49860875D01*
X87101000Y-49993240D01*
X87101000Y-51081760D01*
X87096895Y-51123442D01*
X87087963Y-51214127D01*
X87036443Y-51383966D01*
X86952778Y-51540491D01*
X86923448Y-51576229D01*
X86840186Y-51677686D01*
X86702989Y-51790279D01*
X86555245Y-51869250D01*
X86546465Y-51873943D01*
X86376626Y-51925463D01*
X86200000Y-51942859D01*
X86023373Y-51925463D01*
X85853534Y-51873943D01*
X85697009Y-51790278D01*
X85620966Y-51727871D01*
X85559814Y-51677686D01*
X85447221Y-51540489D01*
X85363558Y-51383967D01*
X85343623Y-51318250D01*
X85312037Y-51214126D01*
X85304515Y-51137751D01*
X85299000Y-51081759D01*
X85299001Y-49993240D01*
X85312038Y-49860875D01*
X85312038Y-49860873D01*
X85363558Y-49691034D01*
X85447223Y-49534509D01*
X85504747Y-49464416D01*
X85559815Y-49397314D01*
X85661272Y-49314052D01*
X85697010Y-49284722D01*
X85853535Y-49201057D01*
X86023374Y-49149537D01*
X86200000Y-49132141D01*
X86376627Y-49149537D01*
X86376627Y-49149537D01*
G37*
G36*
X84451000Y-51713500D02*
G01*
X80649000Y-51713500D01*
X80649000Y-49361500D01*
X84451000Y-49361500D01*
X84451000Y-51713500D01*
X84451000Y-51713500D01*
G37*
G36*
X147884377Y-47717261D02*
G01*
X147905150Y-47719000D01*
X147912077Y-47719000D01*
X148007004Y-47737882D01*
X148010598Y-47738542D01*
X148105980Y-47754624D01*
X148112453Y-47757085D01*
X148132478Y-47762841D01*
X148139277Y-47764193D01*
X148201664Y-47790034D01*
X148228693Y-47801230D01*
X148232094Y-47802581D01*
X148322505Y-47836961D01*
X148328377Y-47840640D01*
X148346886Y-47850187D01*
X148353295Y-47852842D01*
X148433813Y-47906642D01*
X148436804Y-47908578D01*
X148518807Y-47959959D01*
X148523834Y-47964700D01*
X148540146Y-47977691D01*
X148545902Y-47981537D01*
X148614360Y-48049995D01*
X148616939Y-48052499D01*
X148687340Y-48118889D01*
X148691345Y-48124519D01*
X148704809Y-48140444D01*
X148709709Y-48145344D01*
X148763494Y-48225839D01*
X148765541Y-48228807D01*
X148821630Y-48307645D01*
X148824464Y-48313958D01*
X148834558Y-48332193D01*
X148838408Y-48337955D01*
X148875470Y-48427430D01*
X148876874Y-48430685D01*
X148916515Y-48518973D01*
X148918065Y-48525725D01*
X148924402Y-48545562D01*
X148927057Y-48551973D01*
X148945942Y-48646917D01*
X148946688Y-48650401D01*
X148968348Y-48744751D01*
X148968348Y-48744754D01*
X148968550Y-48751654D01*
X148970897Y-48772370D01*
X148972250Y-48779174D01*
X148972250Y-48875986D01*
X148972303Y-48879584D01*
X148973438Y-48918277D01*
X148972545Y-48931225D01*
X148972250Y-48939797D01*
X148972250Y-49010826D01*
X148966331Y-49040585D01*
X148965854Y-49042979D01*
X148963750Y-49058750D01*
X148925488Y-49613545D01*
X148896626Y-49784730D01*
X148814288Y-50001255D01*
X148691291Y-50197557D01*
X148532361Y-50366090D01*
X148343605Y-50500380D01*
X148132277Y-50595265D01*
X147906499Y-50647098D01*
X147674948Y-50653889D01*
X147674947Y-50653889D01*
X147629262Y-50646186D01*
X147446520Y-50615376D01*
X147229995Y-50533038D01*
X147033693Y-50410041D01*
X146865160Y-50251111D01*
X146730870Y-50062355D01*
X146635985Y-49851027D01*
X146584152Y-49625249D01*
X146579062Y-49451723D01*
X146619954Y-48858794D01*
X146620250Y-48850196D01*
X146620250Y-48779175D01*
X146639132Y-48684250D01*
X146639794Y-48680645D01*
X146645481Y-48646917D01*
X146655874Y-48585270D01*
X146658335Y-48578799D01*
X146664092Y-48558767D01*
X146665443Y-48551974D01*
X146668093Y-48545576D01*
X146702514Y-48462476D01*
X146703803Y-48459230D01*
X146738212Y-48368745D01*
X146741886Y-48362881D01*
X146751437Y-48344365D01*
X146754092Y-48337955D01*
X146807907Y-48257415D01*
X146809827Y-48254449D01*
X146861209Y-48172443D01*
X146865961Y-48167404D01*
X146878939Y-48151107D01*
X146882787Y-48145348D01*
X146951243Y-48076892D01*
X146953796Y-48074262D01*
X146974273Y-48052548D01*
X147020139Y-48003910D01*
X147025771Y-47999903D01*
X147041697Y-47986438D01*
X147046596Y-47981539D01*
X147127074Y-47927766D01*
X147130056Y-47925710D01*
X147208895Y-47869620D01*
X147215205Y-47866787D01*
X147233444Y-47856691D01*
X147239201Y-47852844D01*
X147239204Y-47852843D01*
X147239205Y-47852842D01*
X147328679Y-47815781D01*
X147331937Y-47814375D01*
X147420223Y-47774735D01*
X147426975Y-47773185D01*
X147446812Y-47766848D01*
X147453223Y-47764193D01*
X147548149Y-47745311D01*
X147551696Y-47744551D01*
X147646001Y-47722901D01*
X147648380Y-47722831D01*
X147652915Y-47722698D01*
X147673631Y-47720351D01*
X147680424Y-47719000D01*
X147777209Y-47719000D01*
X147780834Y-47718947D01*
X147877552Y-47716110D01*
X147884377Y-47717261D01*
X147884377Y-47717261D01*
G37*
G36*
X128834377Y-47717261D02*
G01*
X128855150Y-47719000D01*
X128862077Y-47719000D01*
X128957004Y-47737882D01*
X128960598Y-47738542D01*
X129055980Y-47754624D01*
X129062453Y-47757085D01*
X129082478Y-47762841D01*
X129089277Y-47764193D01*
X129151664Y-47790034D01*
X129178693Y-47801230D01*
X129182094Y-47802581D01*
X129272505Y-47836961D01*
X129278377Y-47840640D01*
X129296886Y-47850187D01*
X129303295Y-47852842D01*
X129383813Y-47906642D01*
X129386804Y-47908578D01*
X129468807Y-47959959D01*
X129473834Y-47964700D01*
X129490146Y-47977691D01*
X129495902Y-47981537D01*
X129564360Y-48049995D01*
X129566939Y-48052499D01*
X129637340Y-48118889D01*
X129641345Y-48124519D01*
X129654809Y-48140444D01*
X129659709Y-48145344D01*
X129713494Y-48225839D01*
X129715541Y-48228807D01*
X129771630Y-48307645D01*
X129774464Y-48313958D01*
X129784558Y-48332193D01*
X129788408Y-48337955D01*
X129825470Y-48427430D01*
X129826874Y-48430685D01*
X129866515Y-48518973D01*
X129868065Y-48525725D01*
X129874402Y-48545562D01*
X129877057Y-48551973D01*
X129895942Y-48646917D01*
X129896688Y-48650401D01*
X129918348Y-48744751D01*
X129918348Y-48744754D01*
X129918550Y-48751654D01*
X129920897Y-48772370D01*
X129922250Y-48779174D01*
X129922250Y-48875986D01*
X129922303Y-48879584D01*
X129923438Y-48918277D01*
X129922545Y-48931225D01*
X129922250Y-48939797D01*
X129922250Y-49010826D01*
X129916331Y-49040585D01*
X129915854Y-49042979D01*
X129913750Y-49058750D01*
X129875488Y-49613545D01*
X129846626Y-49784730D01*
X129764288Y-50001255D01*
X129641291Y-50197557D01*
X129482361Y-50366090D01*
X129293605Y-50500380D01*
X129082277Y-50595265D01*
X128856499Y-50647098D01*
X128624948Y-50653889D01*
X128624947Y-50653889D01*
X128579262Y-50646186D01*
X128396520Y-50615376D01*
X128179995Y-50533038D01*
X127983693Y-50410041D01*
X127815160Y-50251111D01*
X127680870Y-50062355D01*
X127585985Y-49851027D01*
X127534152Y-49625249D01*
X127529062Y-49451723D01*
X127569954Y-48858794D01*
X127570250Y-48850196D01*
X127570250Y-48779175D01*
X127589132Y-48684250D01*
X127589794Y-48680645D01*
X127595481Y-48646917D01*
X127605874Y-48585270D01*
X127608335Y-48578799D01*
X127614092Y-48558767D01*
X127615443Y-48551974D01*
X127618093Y-48545576D01*
X127652514Y-48462476D01*
X127653803Y-48459230D01*
X127688212Y-48368745D01*
X127691886Y-48362881D01*
X127701437Y-48344365D01*
X127704092Y-48337955D01*
X127757907Y-48257415D01*
X127759827Y-48254449D01*
X127811209Y-48172443D01*
X127815961Y-48167404D01*
X127828939Y-48151107D01*
X127832787Y-48145348D01*
X127901243Y-48076892D01*
X127903796Y-48074262D01*
X127924273Y-48052548D01*
X127970139Y-48003910D01*
X127975771Y-47999903D01*
X127991697Y-47986438D01*
X127996596Y-47981539D01*
X128077074Y-47927766D01*
X128080056Y-47925710D01*
X128158895Y-47869620D01*
X128165205Y-47866787D01*
X128183444Y-47856691D01*
X128189201Y-47852844D01*
X128189204Y-47852843D01*
X128189205Y-47852842D01*
X128278679Y-47815781D01*
X128281937Y-47814375D01*
X128370223Y-47774735D01*
X128376975Y-47773185D01*
X128396812Y-47766848D01*
X128403223Y-47764193D01*
X128498149Y-47745311D01*
X128501696Y-47744551D01*
X128596001Y-47722901D01*
X128598380Y-47722831D01*
X128602915Y-47722698D01*
X128623631Y-47720351D01*
X128630424Y-47719000D01*
X128727209Y-47719000D01*
X128730834Y-47718947D01*
X128827552Y-47716110D01*
X128834377Y-47717261D01*
X128834377Y-47717261D01*
G37*
G36*
X86376627Y-44649537D02*
G01*
X86546466Y-44701057D01*
X86702991Y-44784722D01*
X86738729Y-44814052D01*
X86840186Y-44897314D01*
X86923448Y-44998771D01*
X86952778Y-45034509D01*
X87036443Y-45191034D01*
X87087963Y-45360873D01*
X87101000Y-45493242D01*
X87101000Y-46581758D01*
X87087963Y-46714127D01*
X87036443Y-46883966D01*
X86952778Y-47040491D01*
X86923448Y-47076229D01*
X86840186Y-47177686D01*
X86702989Y-47290279D01*
X86546467Y-47373942D01*
X86546465Y-47373943D01*
X86376626Y-47425463D01*
X86200000Y-47442859D01*
X86023373Y-47425463D01*
X85853534Y-47373943D01*
X85697009Y-47290278D01*
X85661271Y-47260948D01*
X85559814Y-47177686D01*
X85447221Y-47040489D01*
X85363558Y-46883967D01*
X85363557Y-46883965D01*
X85312037Y-46714126D01*
X85299000Y-46581757D01*
X85299001Y-45493242D01*
X85312038Y-45360873D01*
X85363558Y-45191034D01*
X85447223Y-45034509D01*
X85476553Y-44998771D01*
X85559815Y-44897314D01*
X85661272Y-44814052D01*
X85697010Y-44784722D01*
X85853535Y-44701057D01*
X86023374Y-44649537D01*
X86200000Y-44632141D01*
X86376627Y-44649537D01*
X86376627Y-44649537D01*
G37*
G36*
X79076627Y-44649537D02*
G01*
X79246466Y-44701057D01*
X79402991Y-44784722D01*
X79438729Y-44814052D01*
X79540186Y-44897314D01*
X79623448Y-44998771D01*
X79652778Y-45034509D01*
X79736443Y-45191034D01*
X79787963Y-45360873D01*
X79801000Y-45493242D01*
X79801000Y-46581758D01*
X79787963Y-46714127D01*
X79736443Y-46883966D01*
X79652778Y-47040491D01*
X79623448Y-47076229D01*
X79540186Y-47177686D01*
X79402989Y-47290279D01*
X79246467Y-47373942D01*
X79246465Y-47373943D01*
X79076626Y-47425463D01*
X78900000Y-47442859D01*
X78723373Y-47425463D01*
X78553534Y-47373943D01*
X78397009Y-47290278D01*
X78361271Y-47260948D01*
X78259814Y-47177686D01*
X78147221Y-47040489D01*
X78063558Y-46883967D01*
X78063557Y-46883965D01*
X78012037Y-46714126D01*
X77999000Y-46581757D01*
X77999001Y-45493242D01*
X78012038Y-45360873D01*
X78063558Y-45191034D01*
X78147223Y-45034509D01*
X78176553Y-44998771D01*
X78259815Y-44897314D01*
X78361272Y-44814052D01*
X78397010Y-44784722D01*
X78553535Y-44701057D01*
X78723374Y-44649537D01*
X78900000Y-44632141D01*
X79076627Y-44649537D01*
X79076627Y-44649537D01*
G37*
M02*
