M48
; DRILL file {KiCad (5.1.4)-1} date 24/01/2021 7:35:26 PM
; FORMAT={-:-/ absolute / inch / decimal}
; #@! TF.CreationDate,2021-01-24T19:35:26+11:00
; #@! TF.GenerationSoftware,Kicad,Pcbnew,(5.1.4)-1
; #@! TF.FileFunction,Plated,1,2,PTH
FMAT,2
INCH
T1C0.0157
T2C0.0276
T3C0.0409
T4C0.0579
%
G90
G05
T1
X3.3959Y-2.9584
X3.5672Y-2.3172
X3.7188Y-2.2812
X3.8157Y-2.6907
X3.8301Y-2.5
X4.4329Y-2.9016
X4.5501Y-2.4499
T3
X5.6688Y-3.075
X5.7687Y-3.075
X5.6688Y-2.325
X5.7687Y-2.325
X4.9188Y-3.075
X5.0187Y-3.075
X4.9188Y-2.325
X5.0187Y-2.325
T4
X4.8187Y-2.025
X4.8703Y-1.9675
X5.0672Y-1.9478
X5.0687Y-1.925
X5.5687Y-2.775
X5.6203Y-2.7175
X5.8172Y-2.6978
X5.8187Y-2.675
X5.5687Y-2.025
X5.6203Y-1.9675
X5.8172Y-1.9478
X5.8187Y-1.925
X4.8187Y-2.775
X4.8703Y-2.7175
X5.0672Y-2.6978
X5.0687Y-2.675
T2
G00X3.1063Y-1.7889
M15
G01X3.1063Y-1.8361
M16
G05
G00X3.1063Y-1.966
M15
G01X3.1063Y-2.0133
M16
G05
G00X3.3937Y-1.7889
M15
G01X3.3937Y-1.8361
M16
G05
G00X3.3937Y-1.966
M15
G01X3.3937Y-2.0133
M16
G05
T0
M30
