G04 #@! TF.GenerationSoftware,KiCad,Pcbnew,(5.1.4)-1*
G04 #@! TF.CreationDate,2021-01-24T19:33:32+11:00*
G04 #@! TF.ProjectId,aio3 PCB guide,61696f33-2050-4434-9220-67756964652e,rev?*
G04 #@! TF.SameCoordinates,Original*
G04 #@! TF.FileFunction,Copper,L1,Top*
G04 #@! TF.FilePolarity,Positive*
%FSLAX46Y46*%
G04 Gerber Fmt 4.6, Leading zero omitted, Abs format (unit mm)*
G04 Created by KiCad (PCBNEW (5.1.4)-1) date 2021-01-24 19:33:32*
%MOMM*%
%LPD*%
G04 APERTURE LIST*
%ADD10O,1.700000X2.700000*%
%ADD11R,1.905000X1.905000*%
%ADD12C,1.905000*%
%ADD13C,2.250000*%
%ADD14C,2.250000*%
%ADD15C,0.800000*%
%ADD16C,0.254000*%
G04 APERTURE END LIST*
D10*
X78900000Y-50537500D03*
X86200000Y-50537500D03*
X86200000Y-46037500D03*
X78900000Y-46037500D03*
D11*
X146526250Y-78105000D03*
D12*
X143986250Y-78105000D03*
D13*
X142756250Y-69025000D03*
X142101251Y-69755000D03*
D14*
X141446250Y-70485000D02*
X142756252Y-69025000D01*
D13*
X147796250Y-67945000D03*
X147776250Y-68235000D03*
D14*
X147756250Y-68525000D02*
X147796250Y-67945000D01*
D11*
X127476250Y-78105000D03*
D12*
X124936250Y-78105000D03*
D13*
X123706250Y-69025000D03*
X123051251Y-69755000D03*
D14*
X122396250Y-70485000D02*
X123706252Y-69025000D01*
D13*
X128746250Y-67945000D03*
X128726250Y-68235000D03*
D14*
X128706250Y-68525000D02*
X128746250Y-67945000D01*
D11*
X127476250Y-59055000D03*
D12*
X124936250Y-59055000D03*
D13*
X123706250Y-49975000D03*
X123051251Y-50705000D03*
D14*
X122396250Y-51435000D02*
X123706252Y-49975000D01*
D13*
X128746250Y-48895000D03*
X128726250Y-49185000D03*
D14*
X128706250Y-49475000D02*
X128746250Y-48895000D01*
D11*
X146526250Y-59055000D03*
D12*
X143986250Y-59055000D03*
D13*
X142756250Y-49975000D03*
X142101251Y-50705000D03*
D14*
X141446250Y-51435000D02*
X142756252Y-49975000D01*
D13*
X147796250Y-48895000D03*
X147776250Y-49185000D03*
D14*
X147756250Y-49475000D02*
X147796250Y-48895000D01*
D15*
X96919375Y-68344375D03*
X97283500Y-63500000D03*
X94456250Y-57943750D03*
X112595308Y-73701558D03*
X115572500Y-62227500D03*
X86256250Y-75143750D03*
X90606250Y-58856250D03*
D16*
X94456250Y-57943750D02*
X94456250Y-60672750D01*
X96919375Y-68344375D02*
X96919375Y-70725625D01*
X96919375Y-70725625D02*
X100012500Y-73818750D01*
X100012500Y-73818750D02*
X112712500Y-73818750D01*
X112712500Y-73818750D02*
X112595308Y-73701558D01*
X115572500Y-62227500D02*
X115572500Y-72546250D01*
X114417192Y-73701558D02*
X112595308Y-73701558D01*
X115572500Y-72546250D02*
X114417192Y-73701558D01*
X96919375Y-63864125D02*
X97283500Y-63500000D01*
X96919375Y-68344375D02*
X96919375Y-63864125D01*
X94456250Y-60672750D02*
X97283500Y-63500000D01*
X122396250Y-51285000D02*
X122396250Y-51435000D01*
X122396250Y-70485000D02*
X122396250Y-51285000D01*
X141446250Y-51435000D02*
X141446250Y-51752500D01*
X141446250Y-70485000D02*
X141446250Y-51435000D01*
X90606250Y-73175000D02*
X90606250Y-58856250D01*
X86256250Y-75143750D02*
X88637500Y-75143750D01*
X88637500Y-75143750D02*
X90606250Y-73175000D01*
M02*
